<svg width="25" height="24" viewBox="0 0 25 24" fill="none" xmlns="http://www.w3.org/2000/svg">
<g clip-path="url(#clip0_343_4626)">
<path fill-rule="evenodd" clip-rule="evenodd" d="M11.8194 2.80594C12.0108 2.72225 12.2286 2.72224 12.42 2.80592C16.1178 4.42178 19.645 6.40264 22.9492 8.71904C23.1869 8.88566 23.3071 9.17447 23.2578 9.46053C23.2085 9.74658 22.9986 9.97851 22.7189 10.056C22.0356 10.2452 21.3564 10.4487 20.6817 10.6664C20.9137 12.595 21.0538 14.5336 21.1015 16.4758C21.1091 16.7849 20.9261 17.067 20.6408 17.1862C17.8061 18.3702 15.0919 19.8242 12.5357 21.5282C12.2838 21.6962 11.9556 21.6961 11.7037 21.5282C10.1665 20.5034 8.57216 19.5689 6.92879 18.7293C6.60217 19.3934 6.16778 20.0001 5.6424 20.5241C5.34915 20.8167 4.87428 20.8161 4.58174 20.5228C4.28921 20.2296 4.2898 19.7547 4.58305 19.4622C4.99122 19.055 5.32871 18.5837 5.58252 18.0678C4.92858 17.7591 4.26745 17.4652 3.59964 17.1862C3.3143 17.067 3.13137 16.7849 3.13895 16.4758C3.18657 14.5337 3.32665 12.5952 3.55867 10.6667C2.88394 10.449 2.20461 10.2458 1.52115 10.0571C1.24125 9.97986 1.03111 9.74797 0.981675 9.46184C0.932244 9.17571 1.05241 8.88676 1.29016 8.72007C4.59441 6.40334 8.12162 4.42214 11.8194 2.80594ZM4.64444 9.44525C4.62804 9.43908 4.61134 9.43346 4.59436 9.42842C4.21572 9.30132 3.83561 9.17866 3.45414 9.06045C6.20461 7.23936 9.1032 5.65111 12.1198 4.31265C15.1365 5.65095 18.0354 7.23907 20.7861 9.06009C20.3965 9.18091 20.0084 9.3063 19.6218 9.43624C17.0405 10.3042 14.5313 11.3757 12.1197 12.6405C11.0304 12.0692 9.92138 11.5374 8.79476 11.0459C9.98647 10.358 11.2039 9.71531 12.4446 9.11917C12.8179 8.93977 12.9751 8.49168 12.7957 8.11833C12.6163 7.74498 12.1682 7.58776 11.7949 7.76716C10.1772 8.54449 8.59782 9.39891 7.06221 10.3274C6.26405 10.0134 5.45788 9.7192 4.64444 9.44525ZM5.01099 11.1599C4.82605 12.7689 4.70667 14.3848 4.65315 16.0036C5.12105 16.2048 5.58568 16.4132 6.04689 16.6287C6.09567 16.3395 6.12015 16.046 6.11973 15.7512L6.11973 15.5492C6.00715 15.4842 5.90257 15.4043 5.80907 15.3108C5.52776 15.0295 5.36973 14.648 5.36973 14.2502C5.36973 13.8523 5.52776 13.4708 5.80907 13.1895C5.90257 13.096 6.00715 13.0161 6.11973 12.9511V11.5704C5.75184 11.4293 5.38223 11.2924 5.01099 11.1599ZM7.61973 12.1741V12.9511C7.7323 13.0161 7.83688 13.096 7.93039 13.1895C8.21169 13.4708 8.36973 13.8523 8.36973 14.2502C8.36973 14.648 8.21169 15.0295 7.93039 15.3108C7.83688 15.4043 7.7323 15.4842 7.61973 15.5492V15.7498M7.61973 12.1741C9.03087 12.7688 10.4145 13.4282 11.7662 14.1506C11.9871 14.2687 12.2524 14.2687 12.4733 14.1506C14.6484 12.9881 16.9071 11.9884 19.2294 11.1596C19.4144 12.7687 19.5337 14.3847 19.5873 16.0036C16.9881 17.1212 14.4897 18.4602 12.1197 20.0058C10.6094 19.0208 9.04696 18.1196 7.43945 17.3062" fill="black"/>
</g>
<defs>
<clipPath id="clip0_343_4626">
<rect width="24" height="24" fill="white" transform="translate(0.120117)"/>
</clipPath>
</defs>
</svg>
