<svg width="25" height="24" viewBox="0 0 25 24" fill="none" xmlns="http://www.w3.org/2000/svg">
<path d="M13.6201 16.875H16.9951M16.9951 16.875H20.3701M16.9951 16.875V13.5M16.9951 16.875V20.25M6.12012 10.5H8.37012C8.96685 10.5 9.53915 10.2629 9.96111 9.84099C10.3831 9.41903 10.6201 8.84674 10.6201 8.25V6C10.6201 5.40326 10.3831 4.83097 9.96111 4.40901C9.53915 3.98705 8.96685 3.75 8.37012 3.75H6.12012C5.52338 3.75 4.95108 3.98705 4.52913 4.40901C4.10717 4.83097 3.87012 5.40326 3.87012 6V8.25C3.87012 8.84674 4.10717 9.41903 4.52913 9.84099C4.95108 10.2629 5.52338 10.5 6.12012 10.5ZM6.12012 20.25H8.37012C8.96685 20.25 9.53915 20.0129 9.96111 19.591C10.3831 19.169 10.6201 18.5967 10.6201 18V15.75C10.6201 15.1533 10.3831 14.581 9.96111 14.159C9.53915 13.7371 8.96685 13.5 8.37012 13.5H6.12012C5.52338 13.5 4.95108 13.7371 4.52913 14.159C4.10717 14.581 3.87012 15.1533 3.87012 15.75V18C3.87012 18.5967 4.10717 19.169 4.52913 19.591C4.95108 20.0129 5.52338 20.25 6.12012 20.25ZM15.8701 10.5H18.1201C18.7169 10.5 19.2892 10.2629 19.7111 9.84099C20.1331 9.41903 20.3701 8.84674 20.3701 8.25V6C20.3701 5.40326 20.1331 4.83097 19.7111 4.40901C19.2892 3.98705 18.7169 3.75 18.1201 3.75H15.8701C15.2734 3.75 14.7011 3.98705 14.2791 4.40901C13.8572 4.83097 13.6201 5.40326 13.6201 6V8.25C13.6201 8.84674 13.8572 9.41903 14.2791 9.84099C14.7011 10.2629 15.2734 10.5 15.8701 10.5Z" stroke="currentColor" stroke-width="1.5" stroke-linecap="round" stroke-linejoin="round"/>
</svg>
