<svg width="25" height="24" viewBox="0 0 25 24" fill="none" xmlns="http://www.w3.org/2000/svg">
<path d="M13.0199 5.6998C13.0199 5.46111 12.9251 5.23219 12.7563 5.06341C12.5875 4.89463 12.3586 4.7998 12.1199 4.7998C11.8812 4.7998 11.6523 4.89463 11.4835 5.06341C11.3147 5.23219 11.2199 5.46111 11.2199 5.6998V11.0998H5.81992C5.58123 11.0998 5.35231 11.1946 5.18353 11.3634C5.01474 11.5322 4.91992 11.7611 4.91992 11.9998C4.91992 12.2385 5.01474 12.4674 5.18353 12.6362C5.35231 12.805 5.58123 12.8998 5.81992 12.8998H11.2199V18.2998C11.2199 18.5385 11.3147 18.7674 11.4835 18.9362C11.6523 19.105 11.8812 19.1998 12.1199 19.1998C12.3586 19.1998 12.5875 19.105 12.7563 18.9362C12.9251 18.7674 13.0199 18.5385 13.0199 18.2998V12.8998H18.4199C18.6586 12.8998 18.8875 12.805 19.0563 12.6362C19.2251 12.4674 19.3199 12.2385 19.3199 11.9998C19.3199 11.7611 19.2251 11.5322 19.0563 11.3634C18.8875 11.1946 18.6586 11.0998 18.4199 11.0998H13.0199V5.6998Z" fill="currentColor"/>
</svg>
