<svg width="24" height="24" viewBox="0 0 24 24" fill="none" xmlns="http://www.w3.org/2000/svg">
<g clip-path="url(#clip0_215_2525)">
<path d="M19 23.85H5C2.32284 23.85 0.15 21.6772 0.15 19V5C0.15 2.32284 2.32284 0.15 5 0.15H19C21.6772 0.15 23.85 2.32284 23.85 5V19C23.85 21.6772 21.6772 23.85 19 23.85ZM5 1.85C3.26716 1.85 1.85 3.26716 1.85 5V19C1.85 20.7328 3.26716 22.15 5 22.15H19C20.7328 22.15 22.15 20.7328 22.15 19V5C22.15 3.26716 20.7328 1.85 19 1.85H5ZM12 19.85C7.67284 19.85 4.15 16.3272 4.15 12C4.15 7.67284 7.67284 4.15 12 4.15C16.3272 4.15 19.85 7.67284 19.85 12C19.85 16.3272 16.3272 19.85 12 19.85ZM12 5.85C8.60716 5.85 5.85 8.60716 5.85 12C5.85 15.3928 8.60716 18.15 12 18.15C15.3928 18.15 18.15 15.3928 18.15 12C18.15 8.60716 15.3928 5.85 12 5.85ZM13.35 12C13.35 12.7472 12.7472 13.35 12 13.35C11.2528 13.35 10.65 12.7472 10.65 12C10.65 11.2528 11.2528 10.65 12 10.65C12.7472 10.65 13.35 11.2528 13.35 12Z" fill="black" stroke="white" stroke-width="0.3"/>
</g>
<defs>
<clipPath id="clip0_215_2525">
<rect width="24" height="24" fill="white"/>
</clipPath>
</defs>
</svg>
