<svg width="25" height="24" viewBox="0 0 25 24" fill="none" xmlns="http://www.w3.org/2000/svg">
<path d="M20.3701 7.5L19.7451 18.132C19.7114 18.705 19.46 19.2436 19.0423 19.6373C18.6246 20.031 18.0722 20.2502 17.4981 20.25H6.74212C6.16808 20.2502 5.61566 20.031 5.19794 19.6373C4.78022 19.2436 4.52879 18.705 4.49512 18.132L3.87012 7.5M10.1201 11.25H14.1201M3.49512 7.5H20.7451C21.3661 7.5 21.8701 6.996 21.8701 6.375V4.875C21.8701 4.254 21.3661 3.75 20.7451 3.75H3.49512C2.87412 3.75 2.37012 4.254 2.37012 4.875V6.375C2.37012 6.996 2.87412 7.5 3.49512 7.5Z" stroke="black" stroke-width="1.5" stroke-linecap="round" stroke-linejoin="round"/>
</svg>
