<svg width="24" height="24" viewBox="0 0 24 24" fill="none" xmlns="http://www.w3.org/2000/svg">
<g clip-path="url(#clip0_215_2524)">
<path d="M19.901 10.6968L19.9905 10.8171C20.336 10.5601 20.8171 10.6004 21.1136 10.9104C21.4102 11.2207 21.4289 11.7034 21.1569 12.0358L21.1565 12.0363C21.1011 12.1046 19.7697 13.7187 18.2952 14.6292L18.2952 14.6292C17.3045 15.241 16.6463 15.7497 16.1649 16.3833C15.6831 17.0176 15.3874 17.7652 15.0992 18.8379L15.0991 18.8379C14.891 19.6138 14.6952 20.3041 14.4646 20.8877C14.2339 21.4716 13.9726 21.937 13.6399 22.2697C12.5666 23.343 11.5206 23.8478 10.44 23.8478H10.4399H10.4398H10.4397H10.4397H10.4396H10.4395H10.4394H10.4393H10.4392H10.4391H10.439H10.439H10.4389H10.4388H10.4387H10.4386H10.4385H10.4384H10.4383H10.4383H10.4382H10.4381H10.438H10.4379H10.4378H10.4377H10.4376H10.4375H10.4375H10.4374H10.4373H10.4372H10.4371H10.437H10.4369H10.4368H10.4368H10.4367H10.4366H10.4365H10.4364H10.4363H10.4362H10.4361H10.4361H10.436H10.4359H10.4358H10.4357H10.4356H10.4355H10.4354H10.4354H10.4353H10.4352H10.4351H10.435H10.4349H10.4348H10.4347H10.4346H10.4346H10.4345H10.4344H10.4343H10.4342H10.4341H10.434H10.4339H10.4339H10.4338H10.4337H10.4336H10.4335H10.4334H10.4333H10.4332H10.4332H10.4331H10.433H10.4329H10.4328H10.4327H10.4326H10.4325H10.4324H10.4324H10.4323H10.4322H10.4321H10.432H10.4319H10.4318H10.4317H10.4317H10.4316H10.4315H10.4314H10.4313H10.4312H10.4311H10.431H10.431H10.4309H10.4308H10.4307H10.4306H10.4305H10.4304H10.4303H10.4302H10.4302H10.4301H10.43H10.4299H10.4298H10.4297H10.4296H10.4295H10.4295H10.4294H10.4293H10.4292H10.4291H10.429H10.4289H10.4288H10.4287H10.4287H10.4286H10.4285H10.4284H10.4283H10.4282H10.4281H10.428H10.428H10.4279H10.4278H10.4277H10.4276H10.4275H10.4274H10.4273H10.4272H10.4272H10.4271H10.427H10.4269H10.4268H10.4267H10.4266H10.4265H10.4264H10.4264H10.4263H10.4262H10.4261H10.426H10.4259H10.4258H10.4257H10.4257H10.4256H10.4255H10.4254H10.4253H10.4252H10.4251H10.425H10.4249H10.4249H10.4248H10.4247H10.4246H10.4245H10.4244H10.4243H10.4242H10.4241H10.4241H10.424H10.4239H10.4238H10.4237H10.4236H10.4235H10.4234H10.4233H10.4233H10.4232H10.4231H10.423H10.4229H10.4228H10.4227H10.4226H10.4226H10.4225H10.4224H10.4223H10.4222H10.4221H10.422H10.4219H10.4218H10.4218H10.4217H10.4216H10.4215H10.4214H10.4213H10.4212H10.4211H10.421H10.421H10.4209H10.4208H10.4207H10.4206H10.4205H10.4204H10.4203H10.4202H10.4202H10.4201H10.42H10.4199H10.4198H10.4197H10.4196H10.4195H10.4194H10.4193H10.4193H10.4192H10.4191H10.419H10.4189H10.4188H10.4187H10.4186H10.4185H10.4185H10.4184H10.4183H10.4182H10.4181H10.418H10.4179H10.4178H10.4177H10.4177H10.4176H10.4175H10.4174H10.4173H10.4172H10.4171H10.417H10.4169H10.4169H10.4168H10.4167H10.4166H10.4165H10.4164H10.4163H10.4162H10.4161H10.416H10.416H10.4159H10.4158H10.4157H10.4156H10.4155H10.4154H10.4153H10.4152H10.4151H10.4151H10.415H10.4149H10.4148H10.4147H10.4146H10.4145H10.4144H10.4143H10.4143H10.4142H10.4141H10.414H10.4139H10.4138H10.4137H10.4136H10.4135H10.4134H10.4134H10.4133H10.4132H10.4131H10.413H10.4129H10.4128H10.4127H10.4126H10.4125H10.4125H10.4124H10.4123H10.4122H10.4121H10.412H10.4119H10.4118H10.4117H10.4116H10.4116H10.4115H10.4114H10.4113H10.4112H10.4111H10.411H10.4109H10.4108H10.4107H10.4106H10.4106H10.4105H10.4104H10.4103H10.4102H10.4101H10.41H10.4099H10.4098H10.4097H10.4097H10.4096H10.4095H10.4094H10.4093H10.4092H10.4091H10.409H10.4089H10.4088H10.4087H10.4087H10.4086H10.4085H10.4084H10.4083H10.4082H10.4081H10.408H10.4079H10.4078H10.4078H10.4077H10.4076H10.4075H10.4074H10.4073H10.4072H10.4071H10.407H10.4069H10.4068H10.4068H10.4067H10.4066H10.4065H10.4064H10.4063H10.4062H10.4061H10.406H10.4059H10.4058H10.4057H10.4057H10.4056H10.4055H10.4054H10.4053H10.4052H10.4051H10.405H10.4049H10.4048H10.4047H10.4047H10.4046H10.4045H10.4044H10.4043H10.4042H10.4041H10.404H10.4039H10.4038H10.4037H10.4036H10.4036H10.4035H10.4034H10.4033H10.4032H10.4031H10.403H10.4029H10.4028H10.4027H10.4026H10.4025H10.4025H10.4024H10.4023H10.4022H10.4021H10.402H10.4019H10.4018H10.4017H10.4016H10.4015H10.4014H10.4014H10.4013H10.4012H10.4011H10.401H10.4009H10.4008H10.4007H10.4006H10.4005H10.4004H10.4003H10.4002H10.4002H10.4001H10.4H10.3999H10.3998H10.3997H10.3996H10.3995H10.3994H10.3993H10.3992H10.3991H10.399H10.3989H10.3989H10.3988H10.3987H10.3986H10.3985H10.3984H10.3983H10.3982H10.3981H10.398H10.3979H10.3978H10.3977H10.3977H10.3976H10.3975H10.3974H10.3973H10.3972H10.3971H10.397H10.3969H10.3968H10.3967H10.3966H10.3965H10.3964H10.3963H10.3963H10.3962H10.3961H10.396H10.3959H10.3958H10.3957H10.3956H10.3955H10.3954H10.3953H10.3952H10.3951H10.395H10.3949C9.42419 23.8356 8.53996 23.4205 7.65659 22.7512C6.77102 22.0803 5.90057 21.1654 4.95473 20.1704L4.95411 20.1698L3.74112 18.9088L3.74056 18.9082C2.43584 17.5663 1.07494 16.1634 0.466341 14.6664C0.164206 13.9233 0.0506434 13.1632 0.219987 12.3795C0.389486 11.5951 0.845579 10.7724 1.708 9.90993C2.02631 9.59208 2.43673 9.37418 2.92575 9.2023C3.41615 9.02993 3.97483 8.90731 4.58708 8.77331C4.84418 8.71729 5.11322 8.65807 5.39354 8.59175C6.53424 8.32205 7.37469 8.01867 8.06793 7.57064C8.76312 7.12135 9.30027 6.53313 9.84509 5.70958C10.2473 5.10199 10.4941 4.75367 10.727 4.47609C10.9591 4.19952 11.1797 3.99051 11.5349 3.66188L11.535 3.66181L11.5508 3.64712C11.8499 3.36994 12.2593 2.99063 12.8901 2.35985C13.2225 2.02743 13.7595 2.02743 14.0919 2.35985C14.2578 2.52565 14.341 2.74303 14.341 2.96078C14.341 3.17853 14.2578 3.39591 14.0919 3.56172C12.5726 5.08108 12.3281 7.39772 13.3562 9.17489L13.454 9.34396L13.5921 9.20585L18.9591 3.83885L19.0856 3.71233L18.9389 3.60983C18.637 3.3988 18.4368 3.01731 18.3124 2.6414C18.1887 2.26746 18.15 1.93076 18.15 1.84378C18.15 1.76647 18.188 1.67765 18.2869 1.57582C18.3859 1.4739 18.5345 1.37122 18.7258 1.27038C19.1077 1.069 19.6286 0.890837 20.1729 0.740628C21.2592 0.44084 22.4048 0.261392 22.6333 0.227123L22.652 0.224312L22.6695 0.216928C22.979 0.0859696 23.3495 0.147399 23.6009 0.398849C23.9334 0.731264 23.9334 1.26828 23.601 1.6007C23.601 1.6007 23.601 1.60071 23.6009 1.60072L14.731 10.4677L14.6069 10.5917L14.7487 10.695C16.3829 11.8857 18.4434 11.9712 19.9907 10.817L19.901 10.6968ZM19.901 10.6968C18.4516 11.778 16.5278 11.7339 14.9613 10.6616L4.84601 20.2738C6.73301 22.2588 8.36301 23.9728 10.394 23.9978H10.44C11.573 23.9978 12.655 23.4668 13.746 22.3758C14.453 21.6688 14.828 20.4278 15.244 18.8768C15.817 16.7448 16.402 15.9748 18.374 14.7568C19.872 13.8318 21.217 12.1998 21.273 12.1308C21.593 11.7398 21.571 11.1718 21.222 10.8068C20.873 10.4418 20.307 10.3948 19.901 10.6968ZM10.4207 22.1498L10.4191 22.1498C9.77007 22.1416 9.09806 21.7496 8.40857 21.1796C7.71504 20.6064 6.97493 19.8277 6.19002 19.0019L6.18889 19.0008L6.18829 19.0001L4.96046 17.7233C4.96035 17.7232 4.96024 17.7231 4.96013 17.723C4.18863 16.9295 3.54942 16.2502 3.05633 15.6478C2.56391 15.0463 2.21009 14.5129 2.01665 14.0106C1.82145 13.5036 1.78912 13.0266 1.94076 12.5461C2.09085 12.0706 2.41675 11.6059 2.91095 11.1117C2.99679 11.0259 3.12061 10.9553 3.25795 10.8948C3.39775 10.8332 3.56376 10.7767 3.74392 10.7241C4.10389 10.6188 4.53484 10.5244 4.95197 10.4332M10.4207 22.1498L4.98401 10.5798M10.4207 22.1498C11.0272 22.1509 11.7225 21.7864 12.4391 21.0698C12.5538 20.9552 12.657 20.7806 12.7504 20.5834C12.8452 20.3832 12.9355 20.1466 13.0202 19.8977C13.1894 19.3999 13.3396 18.8403 13.4579 18.3997C13.7776 17.2102 14.134 16.3288 14.6468 15.5837C15.1591 14.8394 15.8337 14.2221 16.8027 13.5702L17.1318 13.3489L16.7386 13.2971C15.4056 13.1214 13.9719 12.4805 12.7451 11.2537C11.5285 10.0372 11.1677 8.68088 11.0575 7.39002L11.0247 7.00661L10.7893 7.31103C9.41329 9.0906 7.93634 9.7371 5.78549 10.2458M10.4207 22.1498L5.82001 10.3918M4.95197 10.4332L4.98401 10.5798M4.95197 10.4332C4.95186 10.4333 4.95175 10.4333 4.95165 10.4333L4.98401 10.5798M4.95197 10.4332C4.98505 10.4259 5.01829 10.4186 5.05169 10.4112C5.28813 10.3591 5.5326 10.3051 5.78549 10.2458M4.98401 10.5798C5.01716 10.5725 5.05049 10.5651 5.084 10.5577C5.32045 10.5055 5.56601 10.4513 5.82001 10.3918M5.78549 10.2458L5.82001 10.3918M5.78549 10.2458C5.78558 10.2458 5.78567 10.2458 5.78577 10.2457L5.82001 10.3918M12.4699 14.0298C12.8024 14.3623 12.8024 14.8993 12.4699 15.2317C12.3041 15.3975 12.0868 15.4808 11.869 15.4808C11.6513 15.4808 11.4339 15.3975 11.2681 15.2317L8.76808 12.7317C8.43566 12.3993 8.43566 11.8623 8.76808 11.5298C9.1005 11.1974 9.63752 11.1974 9.96995 11.5298L12.4699 14.0298ZM9.70695 16.7928C10.0394 17.1253 10.0394 17.6623 9.70695 17.9947C9.54114 18.1605 9.32376 18.2438 9.10601 18.2438C8.88826 18.2438 8.67088 18.1605 8.50508 17.9947L6.00508 15.4947C5.67266 15.1623 5.67266 14.6253 6.00508 14.2928C6.3375 13.9604 6.87452 13.9604 7.20694 14.2928L9.70695 16.7928Z" fill="black" stroke="white" stroke-width="0.3"/>
</g>
<defs>
<clipPath id="clip0_215_2524">
<rect width="24" height="24" fill="white"/>
</clipPath>
</defs>
</svg>
