<svg width="24" height="24" viewBox="0 0 24 24" fill="none" xmlns="http://www.w3.org/2000/svg">
<path d="M17.625 15C17.625 15.4148 17.2898 15.75 16.875 15.75H15.375C14.9602 15.75 14.625 15.4148 14.625 15C14.625 14.5852 14.9602 14.25 15.375 14.25H16.875C17.2898 14.25 17.625 14.5852 17.625 15ZM21 14.25V18C21 19.6545 19.6545 21 18 21H6C4.3455 21 3 19.6545 3 18V14.25C3 12.5955 4.3455 11.25 6 11.25H6.75V6C6.75 4.3455 8.0955 3 9.75 3H14.25C15.9045 3 17.25 4.3455 17.25 6V11.25H18C19.6545 11.25 21 12.5955 21 14.25ZM8.25 11.25H15.75V6C15.75 5.17275 15.0773 4.5 14.25 4.5H9.75C8.92275 4.5 8.25 5.17275 8.25 6V11.25ZM6 19.5H11.25V12.75H6C5.17275 12.75 4.5 13.4227 4.5 14.25V18C4.5 18.8273 5.17275 19.5 6 19.5ZM19.5 14.25C19.5 13.4227 18.8273 12.75 18 12.75H12.75V19.5H18C18.8273 19.5 19.5 18.8273 19.5 18V14.25ZM8.625 14.25H7.125C6.71025 14.25 6.375 14.5852 6.375 15C6.375 15.4148 6.71025 15.75 7.125 15.75H8.625C9.03975 15.75 9.375 15.4148 9.375 15C9.375 14.5852 9.03975 14.25 8.625 14.25ZM13.5 6.75C13.5 6.33525 13.1648 6 12.75 6H11.25C10.8352 6 10.5 6.33525 10.5 6.75C10.5 7.16475 10.8352 7.5 11.25 7.5H12.75C13.1648 7.5 13.5 7.16475 13.5 6.75Z" fill="black"/>
</svg>
