<svg width="25" height="24" viewBox="0 0 25 24" fill="none" xmlns="http://www.w3.org/2000/svg">
<path d="M20.3702 14.15V18.4C20.3702 19.494 19.5832 20.436 18.4982 20.58C16.4112 20.857 14.2822 21 12.1202 21C9.95817 21 7.82917 20.857 5.74217 20.58C4.65717 20.436 3.87017 19.494 3.87017 18.4V14.15M20.3702 14.15C20.6076 13.9436 20.7976 13.6883 20.9271 13.4016C21.0565 13.1149 21.1224 12.8036 21.1202 12.489V8.706C21.1202 7.625 20.3522 6.691 19.2832 6.531C18.1505 6.36142 17.0121 6.23234 15.8702 6.144M20.3702 14.15C20.1762 14.315 19.9502 14.445 19.6972 14.53C17.2534 15.3408 14.695 15.7528 12.1202 15.75C9.54542 15.7524 6.98705 15.3405 4.54317 14.53C4.29643 14.4479 4.0679 14.3189 3.87017 14.15M3.87017 14.15C3.63272 13.9436 3.44273 13.6883 3.31327 13.4016C3.18381 13.1149 3.11794 12.8036 3.12017 12.489V8.706C3.12017 7.625 3.88817 6.691 4.95717 6.531C6.08987 6.36142 7.22826 6.23233 8.37017 6.144M15.8702 6.144V5.25C15.8702 4.65326 15.6331 4.08097 15.2112 3.65901C14.7892 3.23705 14.2169 3 13.6202 3H10.6202C10.0234 3 9.45114 3.23705 9.02918 3.65901C8.60723 4.08097 8.37017 4.65326 8.37017 5.25V6.144M15.8702 6.144C13.3739 5.95108 10.8665 5.95108 8.37017 6.144M12.1202 12.75H12.1282V12.758H12.1202V12.75Z" stroke="black" stroke-width="1.5" stroke-linecap="round" stroke-linejoin="round"/>
</svg>
