<svg width="24" height="24" viewBox="0 0 24 24" fill="none" xmlns="http://www.w3.org/2000/svg">
<g clip-path="url(#clip0_215_2519)">
<path d="M19.4756 23.1813L19.4756 23.1814C19.5597 23.5721 19.9055 23.851 20.306 23.851H21.693C22.0921 23.851 22.4383 23.5715 22.5234 23.1803L19.4756 23.1813ZM19.4756 23.1813L18.18 17.1971C17.9789 16.1352 18.7927 15.152 19.874 15.152H19.999H20.149V15.002V11.002C20.149 5.95615 16.0438 1.852 10.999 1.852C5.95419 1.852 1.85 5.95412 1.85 11C1.85 16.0459 5.95517 20.15 11 20.15C12.2725 20.15 13.5039 19.8938 14.66 19.3895L14.661 19.389C15.0887 19.1985 15.5913 19.397 15.7795 19.828C15.9674 20.2583 15.7709 20.7596 15.3412 20.9464L15.3409 20.9466C13.969 21.5462 12.5085 21.85 11 21.85C5.01784 21.85 0.15 16.9822 0.15 11C0.15 5.01784 5.01784 0.15 11 0.15C16.9822 0.15 21.85 5.01784 21.85 11V15V15.15H22H22.125C23.1997 15.15 24.0125 16.1218 23.8218 17.1798L22.5234 23.1801L19.4756 23.1813ZM4.15 11C4.15 7.22383 7.22286 4.15 11 4.15C14.7771 4.15 17.85 7.22383 17.85 11C17.85 14.7762 14.7771 17.85 11 17.85C7.22286 17.85 4.15 14.7762 4.15 11ZM5.85 11C5.85 13.8398 8.16016 16.15 11 16.15C13.8398 16.15 16.15 13.8398 16.15 11C16.15 8.16016 13.8398 5.85 11 5.85C8.16016 5.85 5.85 8.16016 5.85 11ZM12.85 11C12.85 12.0222 12.0222 12.85 11 12.85C9.97784 12.85 9.15 12.0222 9.15 11C9.15 9.97784 9.97784 9.15 11 9.15C12.0222 9.15 12.85 9.97784 12.85 11Z" fill="black" stroke="white" stroke-width="0.3"/>
</g>
<defs>
<clipPath id="clip0_215_2519">
<rect width="24" height="24" fill="white"/>
</clipPath>
</defs>
</svg>
