<svg width="25" height="24" viewBox="0 0 25 24" fill="none" xmlns="http://www.w3.org/2000/svg">
<path fill-rule="evenodd" clip-rule="evenodd" d="M7.02051 2.40039C7.2592 2.40039 7.48812 2.49521 7.6569 2.66399C7.82569 2.83278 7.92051 3.0617 7.92051 3.30039V4.80039H16.3205V3.30039C16.3205 3.0617 16.4153 2.83278 16.5841 2.66399C16.7529 2.49521 16.9818 2.40039 17.2205 2.40039C17.4592 2.40039 17.6881 2.49521 17.8569 2.66399C18.0257 2.83278 18.1205 3.0617 18.1205 3.30039V4.80039H18.4205C19.2957 4.80039 20.1351 5.14807 20.754 5.76694C21.3728 6.38581 21.7205 7.22518 21.7205 8.10039V18.3004C21.7205 19.1756 21.3728 20.015 20.754 20.6338C20.1351 21.2527 19.2957 21.6004 18.4205 21.6004H5.82051C4.94529 21.6004 4.10593 21.2527 3.48706 20.6338C2.86819 20.015 2.52051 19.1756 2.52051 18.3004V8.10039C2.52051 7.22518 2.86819 6.38581 3.48706 5.76694C4.10593 5.14807 4.94529 4.80039 5.82051 4.80039H6.12051V3.30039C6.12051 3.0617 6.21533 2.83278 6.38411 2.66399C6.55289 2.49521 6.78181 2.40039 7.02051 2.40039ZM5.82051 9.00039C4.99251 9.00039 4.32051 9.67239 4.32051 10.5004V18.3004C4.32051 19.1284 4.99251 19.8004 5.82051 19.8004H18.4205C19.2485 19.8004 19.9205 19.1284 19.9205 18.3004V10.5004C19.9205 9.67239 19.2485 9.00039 18.4205 9.00039H5.82051Z" fill="black"/>
</svg>
