<svg width="25" height="24" viewBox="0 0 25 24" fill="none" xmlns="http://www.w3.org/2000/svg">
<path d="M6.87012 3V5.25M17.3701 3V5.25M3.12012 18.75V7.5C3.12012 6.90326 3.35717 6.33097 3.77913 5.90901C4.20108 5.48705 4.77338 5.25 5.37012 5.25H18.8701C19.4669 5.25 20.0392 5.48705 20.4611 5.90901C20.8831 6.33097 21.1201 6.90326 21.1201 7.5V18.75M3.12012 18.75C3.12012 19.3467 3.35717 19.919 3.77913 20.341C4.20108 20.7629 4.77338 21 5.37012 21H18.8701C19.4669 21 20.0392 20.7629 20.4611 20.341C20.8831 19.919 21.1201 19.3467 21.1201 18.75M3.12012 18.75V11.25C3.12012 10.6533 3.35717 10.081 3.77913 9.65901C4.20108 9.23705 4.77338 9 5.37012 9H18.8701C19.4669 9 20.0392 9.23705 20.4611 9.65901C20.8831 10.081 21.1201 10.6533 21.1201 11.25V18.75M12.1201 12.75H12.1281V12.758H12.1201V12.75ZM12.1201 15H12.1281V15.008H12.1201V15ZM12.1201 17.25H12.1281V17.258H12.1201V17.25ZM9.87012 15H9.87812V15.008H9.87012V15ZM9.87012 17.25H9.87812V17.258H9.87012V17.25ZM7.62012 15H7.62812V15.008H7.62012V15ZM7.62012 17.25H7.62812V17.258H7.62012V17.25ZM14.3701 12.75H14.3781V12.758H14.3701V12.75ZM14.3701 15H14.3781V15.008H14.3701V15ZM14.3701 17.25H14.3781V17.258H14.3701V17.25ZM16.6201 12.75H16.6281V12.758H16.6201V12.75ZM16.6201 15H16.6281V15.008H16.6201V15Z" stroke="currentColor" stroke-width="1.5" stroke-linecap="round" stroke-linejoin="round"/>
</svg>
