<svg width="25" height="24" viewBox="0 0 25 24" fill="none" xmlns="http://www.w3.org/2000/svg">
<path d="M6.94712 6.17521C6.76711 6.46012 6.52694 6.70219 6.24345 6.88444C5.95997 7.06669 5.64004 7.18471 5.30612 7.23021C4.92612 7.28421 4.54912 7.34221 4.17212 7.40521C3.11912 7.58021 2.37012 8.50721 2.37012 9.57421V18.0002C2.37012 18.5969 2.60717 19.1692 3.02913 19.5912C3.45108 20.0132 4.02338 20.2502 4.62012 20.2502H19.6201C20.2169 20.2502 20.7892 20.0132 21.2111 19.5912C21.6331 19.1692 21.8701 18.5969 21.8701 18.0002V9.57421C21.8701 8.50721 21.1201 7.58021 20.0681 7.40521C19.6908 7.34234 19.3128 7.28401 18.9341 7.23021C18.6004 7.18457 18.2806 7.06649 17.9973 6.88424C17.714 6.702 17.474 6.46 17.2941 6.17521L16.4721 4.85921C16.2875 4.5593 16.0333 4.3083 15.7312 4.12744C15.429 3.94658 15.0877 3.8412 14.7361 3.82021C12.9934 3.7266 11.2469 3.7266 9.50412 3.82021C9.15257 3.8412 8.81126 3.94658 8.50908 4.12744C8.20689 4.3083 7.95273 4.5593 7.76812 4.85921L6.94712 6.17521Z" stroke="black" stroke-width="1.5" stroke-linecap="round" stroke-linejoin="round"/>
<path d="M16.6201 12.75C16.6201 13.9435 16.146 15.0881 15.3021 15.932C14.4582 16.7759 13.3136 17.25 12.1201 17.25C10.9266 17.25 9.78205 16.7759 8.93814 15.932C8.09422 15.0881 7.62012 13.9435 7.62012 12.75C7.62012 11.5565 8.09422 10.4119 8.93814 9.56802C9.78205 8.72411 10.9266 8.25 12.1201 8.25C13.3136 8.25 14.4582 8.72411 15.3021 9.56802C16.146 10.4119 16.6201 11.5565 16.6201 12.75ZM18.8701 10.5H18.8781V10.508H18.8701V10.5Z" stroke="black" stroke-width="1.5" stroke-linecap="round" stroke-linejoin="round"/>
</svg>
