<svg width="25" height="24" viewBox="0 0 25 24" fill="none" xmlns="http://www.w3.org/2000/svg">
<path d="M1.32031 2.1002C1.32031 1.8615 1.41513 1.63258 1.58392 1.4638C1.7527 1.29502 1.98162 1.2002 2.22031 1.2002H4.17391C4.68109 1.20004 5.17118 1.38344 5.55366 1.71651C5.93614 2.04958 6.18516 2.50981 6.25471 3.0122L6.33631 3.6002C11.7244 3.61188 17.0968 4.17969 22.3683 5.2946C22.5986 5.34375 22.8005 5.48122 22.9306 5.67753C23.0608 5.87383 23.1088 6.11331 23.0643 6.3446C22.5813 8.86457 21.9327 11.35 21.1227 13.7846C21.063 13.9639 20.9483 14.1199 20.7949 14.2304C20.6416 14.3409 20.4573 14.4003 20.2683 14.4002H7.32031C6.73654 14.4005 6.1655 14.5709 5.67703 14.8906C5.18857 15.2102 4.80384 15.6653 4.56991 16.2002H20.8203C21.059 16.2002 21.2879 16.295 21.4567 16.4638C21.6255 16.6326 21.7203 16.8615 21.7203 17.1002C21.7203 17.3389 21.6255 17.5678 21.4567 17.7366C21.2879 17.9054 21.059 18.0002 20.8203 18.0002H3.43231C3.30834 18.0002 3.1857 17.9746 3.07208 17.925C2.95846 17.8755 2.85632 17.8029 2.77204 17.712C2.68777 17.6211 2.62319 17.5137 2.58235 17.3967C2.54151 17.2796 2.52529 17.1554 2.53471 17.0318C2.60723 16.0915 2.95497 15.1935 3.53457 14.4495C4.11416 13.7056 4.89994 13.1488 5.79391 12.8486L4.47151 3.2594C4.46164 3.18751 4.42605 3.12163 4.37133 3.07397C4.31661 3.02631 4.24648 3.0001 4.17391 3.0002H2.22031C1.98162 3.0002 1.7527 2.90537 1.58392 2.73659C1.41513 2.56781 1.32031 2.33889 1.32031 2.1002ZM7.32031 21.0002C7.32031 21.4776 7.13067 21.9354 6.79311 22.273C6.45554 22.6105 5.9977 22.8002 5.52031 22.8002C5.04292 22.8002 4.58509 22.6105 4.24752 22.273C3.90996 21.9354 3.72031 21.4776 3.72031 21.0002C3.72031 20.5228 3.90996 20.065 4.24752 19.7274C4.58509 19.3898 5.04292 19.2002 5.52031 19.2002C5.9977 19.2002 6.45554 19.3898 6.79311 19.7274C7.13067 20.065 7.32031 20.5228 7.32031 21.0002ZM18.7203 22.8002C19.1977 22.8002 19.6555 22.6105 19.9931 22.273C20.3307 21.9354 20.5203 21.4776 20.5203 21.0002C20.5203 20.5228 20.3307 20.065 19.9931 19.7274C19.6555 19.3898 19.1977 19.2002 18.7203 19.2002C18.2429 19.2002 17.7851 19.3898 17.4475 19.7274C17.11 20.065 16.9203 20.5228 16.9203 21.0002C16.9203 21.4776 17.11 21.9354 17.4475 22.273C17.7851 22.6105 18.2429 22.8002 18.7203 22.8002Z" fill="black"/>
</svg>
