<svg width="25" height="24" viewBox="0 0 25 24" fill="none" xmlns="http://www.w3.org/2000/svg">
<path d="M2.37012 3H3.75612C4.26612 3 4.71112 3.343 4.84312 3.835L5.22612 5.272M5.22612 5.272C10.7968 5.11589 16.3621 5.73515 21.7621 7.112C20.9381 9.566 19.9591 11.95 18.8381 14.25H7.62012M5.22612 5.272L7.62012 14.25M7.62012 14.25C6.82447 14.25 6.06141 14.5661 5.4988 15.1287C4.93619 15.6913 4.62012 16.4544 4.62012 17.25H20.3701M6.12012 20.25C6.12012 20.4489 6.0411 20.6397 5.90045 20.7803C5.7598 20.921 5.56903 21 5.37012 21C5.1712 21 4.98044 20.921 4.83979 20.7803C4.69913 20.6397 4.62012 20.4489 4.62012 20.25C4.62012 20.0511 4.69913 19.8603 4.83979 19.7197C4.98044 19.579 5.1712 19.5 5.37012 19.5C5.56903 19.5 5.7598 19.579 5.90045 19.7197C6.0411 19.8603 6.12012 20.0511 6.12012 20.25ZM18.8701 20.25C18.8701 20.4489 18.7911 20.6397 18.6504 20.7803C18.5098 20.921 18.319 21 18.1201 21C17.9212 21 17.7304 20.921 17.5898 20.7803C17.4491 20.6397 17.3701 20.4489 17.3701 20.25C17.3701 20.0511 17.4491 19.8603 17.5898 19.7197C17.7304 19.579 17.9212 19.5 18.1201 19.5C18.319 19.5 18.5098 19.579 18.6504 19.7197C18.7911 19.8603 18.8701 20.0511 18.8701 20.25Z" stroke="currentColor" stroke-width="1.5" stroke-linecap="round" stroke-linejoin="round"/>
</svg>
