<svg width="25" height="24" viewBox="0 0 25 24" fill="none" xmlns="http://www.w3.org/2000/svg">
<path d="M8.74512 12C8.74512 12.0995 8.70561 12.1948 8.63528 12.2652C8.56496 12.3355 8.46957 12.375 8.37012 12.375C8.27066 12.375 8.17528 12.3355 8.10495 12.2652C8.03463 12.1948 7.99512 12.0995 7.99512 12C7.99512 11.9005 8.03463 11.8052 8.10495 11.7348C8.17528 11.6645 8.27066 11.625 8.37012 11.625C8.46957 11.625 8.56496 11.6645 8.63528 11.7348C8.70561 11.8052 8.74512 11.9005 8.74512 12ZM8.74512 12H8.37012M12.4951 12C12.4951 12.0995 12.4556 12.1948 12.3853 12.2652C12.315 12.3355 12.2196 12.375 12.1201 12.375C12.0207 12.375 11.9253 12.3355 11.855 12.2652C11.7846 12.1948 11.7451 12.0995 11.7451 12C11.7451 11.9005 11.7846 11.8052 11.855 11.7348C11.9253 11.6645 12.0207 11.625 12.1201 11.625C12.2196 11.625 12.315 11.6645 12.3853 11.7348C12.4556 11.8052 12.4951 11.9005 12.4951 12ZM12.4951 12H12.1201M16.2451 12C16.2451 12.0995 16.2056 12.1948 16.1353 12.2652C16.065 12.3355 15.9696 12.375 15.8701 12.375C15.7707 12.375 15.6753 12.3355 15.605 12.2652C15.5346 12.1948 15.4951 12.0995 15.4951 12C15.4951 11.9005 15.5346 11.8052 15.605 11.7348C15.6753 11.6645 15.7707 11.625 15.8701 11.625C15.9696 11.625 16.065 11.6645 16.1353 11.7348C16.2056 11.8052 16.2451 11.9005 16.2451 12ZM16.2451 12H15.8701M21.1201 12C21.1201 16.556 17.0901 20.25 12.1201 20.25C11.2573 20.251 10.3982 20.1377 9.56512 19.913C8.39088 20.7389 6.95844 21.1141 5.53012 20.97C5.37131 20.9547 5.21318 20.933 5.05612 20.905C5.54898 20.3241 5.88559 19.6272 6.03412 18.88C6.12412 18.423 5.90112 17.979 5.56712 17.654C4.05012 16.178 3.12012 14.189 3.12012 12C3.12012 7.444 7.15012 3.75 12.1201 3.75C17.0901 3.75 21.1201 7.444 21.1201 12Z" stroke="currentColor" stroke-width="1.5" stroke-linecap="round" stroke-linejoin="round"/>
</svg>
