<svg width="25" height="24" viewBox="0 0 25 24" fill="none" xmlns="http://www.w3.org/2000/svg">
<path fill-rule="evenodd" clip-rule="evenodd" d="M4.92412 21.644C5.31881 21.715 5.71908 21.7505 6.12012 21.75C7.38758 21.7517 8.6297 21.395 9.70312 20.721C10.4771 20.903 11.2871 21 12.1201 21C17.4421 21 21.8701 17.03 21.8701 12C21.8701 6.97 17.4421 3 12.1201 3C6.79812 3 2.37012 6.97 2.37012 12C2.37012 14.409 3.39512 16.587 5.04412 18.192C5.27612 18.418 5.32112 18.62 5.29812 18.735C5.17453 19.3571 4.89438 19.9373 4.48412 20.421C4.39895 20.5215 4.34177 20.6428 4.31835 20.7724C4.29492 20.9021 4.30608 21.0357 4.35068 21.1597C4.39529 21.2836 4.47178 21.3937 4.57245 21.4787C4.67312 21.5638 4.79441 21.6208 4.92412 21.644ZM8.37012 10.875C8.07175 10.875 7.7856 10.9935 7.57462 11.2045C7.36364 11.4155 7.24512 11.7016 7.24512 12C7.24512 12.2984 7.36364 12.5845 7.57462 12.7955C7.7856 13.0065 8.07175 13.125 8.37012 13.125C8.66849 13.125 8.95463 13.0065 9.16561 12.7955C9.37659 12.5845 9.49512 12.2984 9.49512 12C9.49512 11.7016 9.37659 11.4155 9.16561 11.2045C8.95463 10.9935 8.66849 10.875 8.37012 10.875ZM10.9951 12C10.9951 11.7016 11.1136 11.4155 11.3246 11.2045C11.5356 10.9935 11.8217 10.875 12.1201 10.875C12.4185 10.875 12.7046 10.9935 12.9156 11.2045C13.1266 11.4155 13.2451 11.7016 13.2451 12C13.2451 12.2984 13.1266 12.5845 12.9156 12.7955C12.7046 13.0065 12.4185 13.125 12.1201 13.125C11.8217 13.125 11.5356 13.0065 11.3246 12.7955C11.1136 12.5845 10.9951 12.2984 10.9951 12ZM15.8701 10.875C15.5717 10.875 15.2856 10.9935 15.0746 11.2045C14.8636 11.4155 14.7451 11.7016 14.7451 12C14.7451 12.2984 14.8636 12.5845 15.0746 12.7955C15.2856 13.0065 15.5717 13.125 15.8701 13.125C16.1685 13.125 16.4546 13.0065 16.6656 12.7955C16.8766 12.5845 16.9951 12.2984 16.9951 12C16.9951 11.7016 16.8766 11.4155 16.6656 11.2045C16.4546 10.9935 16.1685 10.875 15.8701 10.875Z" fill="black"/>
</svg>
