<svg width="25" height="24" viewBox="0 0 25 24" fill="none" xmlns="http://www.w3.org/2000/svg">
<path d="M20.3701 8.511C21.2541 8.795 21.8701 9.639 21.8701 10.608V14.894C21.8701 16.03 21.0231 16.994 19.8901 17.087C19.5501 17.114 19.2101 17.139 18.8701 17.159V20.25L15.8701 17.25C14.5285 17.2502 13.1874 17.1958 11.8501 17.087C11.5614 17.0637 11.2806 16.9813 11.0251 16.845M20.3701 8.511C20.2156 8.46127 20.0559 8.42939 19.8941 8.416C17.2161 8.19368 14.5242 8.19368 11.8461 8.416C10.7151 8.51 9.87012 9.473 9.87012 10.608V14.894C9.87012 15.731 10.3301 16.474 11.0251 16.845M20.3701 8.511V6.637C20.3701 5.016 19.2181 3.611 17.6101 3.402C15.5409 3.13379 13.4566 2.99951 11.3701 3C9.25512 3 7.17212 3.137 5.13012 3.402C3.52212 3.611 2.37012 5.016 2.37012 6.637V12.863C2.37012 14.484 3.52212 15.889 5.13012 16.098C5.70712 16.173 6.28712 16.238 6.87012 16.292V21L11.0251 16.845" stroke="black" stroke-width="1.5" stroke-linecap="round" stroke-linejoin="round"/>
</svg>
