<svg width="25" height="24" viewBox="0 0 25 24" fill="none" xmlns="http://www.w3.org/2000/svg">
<path fill-rule="evenodd" clip-rule="evenodd" d="M20.036 4.62594C20.2015 4.73628 20.3163 4.90783 20.3553 5.10287C20.3943 5.2979 20.3543 5.50044 20.244 5.66594L11.244 19.1659C11.1824 19.2582 11.1011 19.3356 11.006 19.3927C10.9109 19.4497 10.8043 19.485 10.6939 19.4959C10.5836 19.5068 10.4721 19.4931 10.3677 19.4557C10.2633 19.4184 10.1684 19.3584 10.09 19.2799L4.08996 13.2799C3.95748 13.1378 3.88536 12.9497 3.88879 12.7554C3.89222 12.5611 3.97093 12.3757 4.10834 12.2383C4.24575 12.1009 4.43114 12.0222 4.62544 12.0188C4.81974 12.0153 5.00779 12.0875 5.14996 12.2199L10.503 17.5729L18.996 4.83394C19.1063 4.66845 19.2779 4.55357 19.4729 4.51457C19.6679 4.47556 19.8705 4.51562 20.036 4.62594Z" fill="black"/>
</svg>
