<svg width="25" height="24" viewBox="0 0 25 24" fill="none" xmlns="http://www.w3.org/2000/svg">
<path d="M12.1201 6V12H16.6201M21.1201 12C21.1201 13.1819 20.8873 14.3522 20.435 15.4442C19.9827 16.5361 19.3198 17.5282 18.4841 18.364C17.6484 19.1997 16.6562 19.8626 15.5643 20.3149C14.4723 20.7672 13.302 21 12.1201 21C10.9382 21 9.7679 20.7672 8.67597 20.3149C7.58404 19.8626 6.59188 19.1997 5.75616 18.364C4.92043 17.5282 4.25749 16.5361 3.8052 15.4442C3.35291 14.3522 3.12012 13.1819 3.12012 12C3.12012 9.61305 4.06833 7.32387 5.75616 5.63604C7.44398 3.94821 9.73317 3 12.1201 3C14.5071 3 16.7963 3.94821 18.4841 5.63604C20.1719 7.32387 21.1201 9.61305 21.1201 12Z" stroke="black" stroke-width="1.5" stroke-linecap="round" stroke-linejoin="round"/>
</svg>
