<svg width="25" height="24" viewBox="0 0 25 24" fill="none" xmlns="http://www.w3.org/2000/svg">
<path fill-rule="evenodd" clip-rule="evenodd" d="M12.1205 21.6004C14.6666 21.6004 17.1084 20.589 18.9087 18.7886C20.7091 16.9883 21.7205 14.5465 21.7205 12.0004C21.7205 9.45431 20.7091 7.01252 18.9087 5.21217C17.1084 3.41182 14.6666 2.40039 12.1205 2.40039C9.57443 2.40039 7.13263 3.41182 5.33228 5.21217C3.53193 7.01252 2.52051 9.45431 2.52051 12.0004C2.52051 14.5465 3.53193 16.9883 5.33228 18.7886C7.13263 20.589 9.57443 21.6004 12.1205 21.6004ZM10.0565 8.66439C9.8859 8.50541 9.66024 8.41887 9.42708 8.42298C9.19392 8.42709 8.97146 8.52155 8.80656 8.68644C8.64167 8.85134 8.54721 9.0738 8.5431 9.30696C8.53898 9.54013 8.62553 9.76578 8.78451 9.93639L10.8485 12.0004L8.78451 14.0644C8.69608 14.1468 8.62516 14.2461 8.57597 14.3565C8.52678 14.4669 8.50033 14.5861 8.4982 14.707C8.49607 14.8278 8.5183 14.9478 8.56356 15.0599C8.60883 15.172 8.6762 15.2738 8.76166 15.3592C8.84712 15.4447 8.94893 15.5121 9.06099 15.5573C9.17306 15.6026 9.29309 15.6248 9.41394 15.6227C9.53478 15.6206 9.65395 15.5941 9.76435 15.5449C9.87475 15.4957 9.97411 15.4248 10.0565 15.3364L12.1205 13.2724L14.1845 15.3364C14.2669 15.4248 14.3663 15.4957 14.4767 15.5449C14.5871 15.5941 14.7062 15.6206 14.8271 15.6227C14.9479 15.6248 15.068 15.6026 15.18 15.5573C15.2921 15.5121 15.3939 15.4447 15.4794 15.3592C15.5648 15.2738 15.6322 15.172 15.6775 15.0599C15.7227 14.9478 15.745 14.8278 15.7428 14.707C15.7407 14.5861 15.7142 14.4669 15.665 14.3565C15.6159 14.2461 15.5449 14.1468 15.4565 14.0644L13.3925 12.0004L15.4565 9.93639C15.6155 9.76578 15.702 9.54013 15.6979 9.30696C15.6938 9.0738 15.5993 8.85134 15.4345 8.68644C15.2696 8.52155 15.0471 8.42709 14.8139 8.42298C14.5808 8.41887 14.3551 8.50541 14.1845 8.66439L12.1205 10.7284L10.0565 8.66439Z" fill="currentColor"/>
</svg>
