<svg width="25" height="24" viewBox="0 0 25 24" fill="none" xmlns="http://www.w3.org/2000/svg">
<path d="M10.4631 3.94C10.5531 3.398 11.0231 3 11.5731 3H12.6661C13.2161 3 13.6861 3.398 13.7761 3.94L13.9251 4.834C13.9951 5.258 14.3091 5.598 14.7051 5.764C15.1031 5.928 15.5601 5.906 15.9101 5.656L16.6471 5.129C16.8639 4.97405 17.1286 4.90107 17.3941 4.92305C17.6597 4.94502 17.9088 5.06053 18.0971 5.249L18.8701 6.023C19.2601 6.412 19.3101 7.025 18.9901 7.473L18.4631 8.21C18.2131 8.56 18.1911 9.016 18.3561 9.414C18.5211 9.811 18.8611 10.124 19.2861 10.194L20.1791 10.344C20.7221 10.434 21.1191 10.904 21.1191 11.453V12.547C21.1191 13.097 20.7221 13.567 20.1791 13.657L19.2861 13.806C18.8611 13.876 18.5211 14.189 18.3561 14.586C18.1911 14.984 18.2131 15.44 18.4631 15.79L18.9901 16.528C19.3101 16.975 19.2591 17.588 18.8701 17.978L18.0961 18.751C17.9079 18.9392 17.6589 19.0546 17.3936 19.0765C17.1283 19.0985 16.8638 19.0257 16.6471 18.871L15.9091 18.344C15.5591 18.094 15.1031 18.072 14.7061 18.237C14.3091 18.402 13.9961 18.742 13.9251 19.166L13.7761 20.06C13.6861 20.602 13.2161 21 12.6661 21H11.5721C11.0221 21 10.5531 20.602 10.4621 20.06L10.3141 19.166C10.2431 18.742 9.93014 18.402 9.53314 18.236C9.13514 18.072 8.67914 18.094 8.32914 18.344L7.59114 18.871C7.14414 19.191 6.53114 19.14 6.14114 18.751L5.36814 17.977C5.17967 17.7887 5.06416 17.5395 5.04219 17.274C5.02021 17.0085 5.09319 16.7438 5.24814 16.527L5.77514 15.79C6.02514 15.44 6.04814 14.984 5.88314 14.586C5.71814 14.189 5.37814 13.876 4.95314 13.806L4.05914 13.656C3.51714 13.566 3.11914 13.096 3.11914 12.547V11.453C3.11914 10.903 3.51714 10.433 4.05914 10.343L4.95314 10.194C5.37714 10.124 5.71814 9.811 5.88314 9.414C6.04814 9.016 6.02614 8.56 5.77614 8.21L5.24914 7.472C5.0942 7.25524 5.02121 6.99053 5.04319 6.72499C5.06516 6.45945 5.18067 6.21034 5.36914 6.022L6.14214 5.249C6.33048 5.06053 6.57959 4.94502 6.84513 4.92305C7.11067 4.90107 7.37538 4.97405 7.59214 5.129L8.32914 5.656C8.67914 5.906 9.13614 5.928 9.53314 5.763C9.93014 5.598 10.2431 5.258 10.3131 4.834L10.4631 3.94Z" stroke="currentColor" stroke-width="1.5" stroke-linecap="round" stroke-linejoin="round"/>
<path d="M15.1201 12C15.1201 12.7956 14.804 13.5587 14.2414 14.1213C13.6788 14.6839 12.9158 15 12.1201 15C11.3245 15 10.5614 14.6839 9.9988 14.1213C9.43619 13.5587 9.12012 12.7956 9.12012 12C9.12012 11.2044 9.43619 10.4413 9.9988 9.87868C10.5614 9.31607 11.3245 9 12.1201 9C12.9158 9 13.6788 9.31607 14.2414 9.87868C14.804 10.4413 15.1201 11.2044 15.1201 12Z" stroke="currentColor" stroke-width="1.5" stroke-linecap="round" stroke-linejoin="round"/>
</svg>
