<svg width="25" height="24" viewBox="0 0 25 24" fill="none" xmlns="http://www.w3.org/2000/svg">
<path d="M6.12012 6.878V6C6.12012 5.40326 6.35717 4.83097 6.77913 4.40901C7.20108 3.98705 7.77338 3.75 8.37012 3.75H15.8701C16.4669 3.75 17.0392 3.98705 17.4611 4.40901C17.8831 4.83097 18.1201 5.40326 18.1201 6V6.878M6.12012 6.878C6.35512 6.795 6.60712 6.75 6.87012 6.75H17.3701C17.6331 6.75 17.8851 6.795 18.1201 6.878M6.12012 6.878C5.68133 7.03313 5.30145 7.32052 5.0328 7.70056C4.76416 8.0806 4.61998 8.5346 4.62012 9V9.878M18.1201 6.878C18.5589 7.03313 18.9388 7.32052 19.2074 7.70056C19.4761 8.0806 19.6203 8.5346 19.6201 9V9.878M4.62012 9.878C4.85512 9.795 5.10712 9.75 5.37012 9.75H18.8701C19.1256 9.7497 19.3792 9.79299 19.6201 9.878M4.62012 9.878C3.74612 10.187 3.12012 11.02 3.12012 12V18C3.12012 18.5967 3.35717 19.169 3.77913 19.591C4.20108 20.0129 4.77338 20.25 5.37012 20.25H18.8701C19.4669 20.25 20.0392 20.0129 20.4611 19.591C20.8831 19.169 21.1201 18.5967 21.1201 18V12C21.1203 11.5346 20.9761 11.0806 20.7074 10.7006C20.4388 10.3205 20.0589 10.0331 19.6201 9.878" stroke="black" stroke-width="1.5" stroke-linecap="round" stroke-linejoin="round"/>
</svg>
