<svg width="25" height="24" viewBox="0 0 25 24" fill="none" xmlns="http://www.w3.org/2000/svg">
<path d="M12.1201 6.75C11.9212 6.75 11.7304 6.67098 11.5898 6.53033C11.4491 6.38968 11.3701 6.19891 11.3701 6C11.3701 5.80109 11.4491 5.61032 11.5898 5.46967C11.7304 5.32902 11.9212 5.25 12.1201 5.25C12.319 5.25 12.5098 5.32902 12.6504 5.46967C12.7911 5.61032 12.8701 5.80109 12.8701 6C12.8701 6.19891 12.7911 6.38968 12.6504 6.53033C12.5098 6.67098 12.319 6.75 12.1201 6.75ZM12.1201 12.75C11.9212 12.75 11.7304 12.671 11.5898 12.5303C11.4491 12.3897 11.3701 12.1989 11.3701 12C11.3701 11.8011 11.4491 11.6103 11.5898 11.4697C11.7304 11.329 11.9212 11.25 12.1201 11.25C12.319 11.25 12.5098 11.329 12.6504 11.4697C12.7911 11.6103 12.8701 11.8011 12.8701 12C12.8701 12.1989 12.7911 12.3897 12.6504 12.5303C12.5098 12.671 12.319 12.75 12.1201 12.75ZM12.1201 18.75C11.9212 18.75 11.7304 18.671 11.5898 18.5303C11.4491 18.3897 11.3701 18.1989 11.3701 18C11.3701 17.8011 11.4491 17.6103 11.5898 17.4697C11.7304 17.329 11.9212 17.25 12.1201 17.25C12.319 17.25 12.5098 17.329 12.6504 17.4697C12.7911 17.6103 12.8701 17.8011 12.8701 18C12.8701 18.1989 12.7911 18.3897 12.6504 18.5303C12.5098 18.671 12.319 18.75 12.1201 18.75Z" stroke="black" stroke-width="1.5" stroke-linecap="round" stroke-linejoin="round"/>
</svg>
