<svg width="25" height="24" viewBox="0 0 25 24" fill="none" xmlns="http://www.w3.org/2000/svg">
<path d="M15.3021 15.182C14.8843 15.5999 14.3882 15.9313 13.8422 16.1575C13.2962 16.3836 12.7111 16.5 12.1201 16.5C11.5292 16.5 10.944 16.3836 10.398 16.1575C9.85206 15.9313 9.35598 15.5999 8.93812 15.182M21.1201 12C21.1201 13.1819 20.8873 14.3522 20.435 15.4442C19.9827 16.5361 19.3198 17.5282 18.4841 18.364C17.6484 19.1997 16.6562 19.8626 15.5643 20.3149C14.4723 20.7672 13.302 21 12.1201 21C10.9382 21 9.7679 20.7672 8.67597 20.3149C7.58404 19.8626 6.59188 19.1997 5.75616 18.364C4.92043 17.5282 4.25749 16.5361 3.8052 15.4442C3.35291 14.3522 3.12012 13.1819 3.12012 12C3.12012 9.61305 4.06833 7.32387 5.75616 5.63604C7.44398 3.94821 9.73317 3 12.1201 3C14.5071 3 16.7963 3.94821 18.4841 5.63604C20.1719 7.32387 21.1201 9.61305 21.1201 12ZM9.87012 9.75C9.87012 10.164 9.70212 10.5 9.49512 10.5C9.28812 10.5 9.12012 10.164 9.12012 9.75C9.12012 9.336 9.28812 9 9.49512 9C9.70212 9 9.87012 9.336 9.87012 9.75ZM9.49512 9.75H9.50312V9.765H9.49512V9.75ZM15.1201 9.75C15.1201 10.164 14.9521 10.5 14.7451 10.5C14.5381 10.5 14.3701 10.164 14.3701 9.75C14.3701 9.336 14.5381 9 14.7451 9C14.9521 9 15.1201 9.336 15.1201 9.75ZM14.7451 9.75H14.7531V9.765H14.7451V9.75Z" stroke="black" stroke-width="1.5" stroke-linecap="round" stroke-linejoin="round"/>
</svg>
