<svg width="25" height="24" viewBox="0 0 25 24" fill="none" xmlns="http://www.w3.org/2000/svg">
<path d="M3.49512 19.5H20.7451M3.49512 19.5C3.19675 19.5 2.9106 19.3815 2.69962 19.1705C2.48864 18.9595 2.37012 18.6734 2.37012 18.375M3.49512 19.5H4.99512C5.61612 19.5 6.12012 18.996 6.12012 18.375M20.7451 19.5C21.3661 19.5 21.8701 18.996 21.8701 18.375M20.7451 19.5H19.2451C18.9467 19.5 18.6606 19.3815 18.4496 19.1705C18.2386 18.9595 18.1201 18.6734 18.1201 18.375M2.37012 18.375V5.625M2.37012 18.375V16.875C2.37012 16.254 2.87412 15.75 3.49512 15.75M6.12012 18.375V13.125M6.12012 18.375C6.12012 18.996 6.62412 19.5 7.24512 19.5H16.9951C17.6161 19.5 18.1201 18.996 18.1201 18.375M6.12012 18.375V16.875C6.12012 16.254 5.61612 15.75 4.99512 15.75M2.37012 5.625C2.37012 5.004 2.87412 4.5 3.49512 4.5M2.37012 5.625V7.125C2.37012 7.746 2.87412 8.25 3.49512 8.25M3.49512 15.75C2.87412 15.75 2.37012 15.246 2.37012 14.625V13.125C2.37012 12.504 2.87412 12 3.49512 12M3.49512 15.75H4.99512M21.8701 18.375V5.625M21.8701 18.375V16.875C21.8701 16.254 21.3661 15.75 20.7451 15.75M21.8701 5.625C21.8701 5.004 21.3661 4.5 20.7451 4.5M21.8701 5.625V7.125C21.8701 7.746 21.3661 8.25 20.7451 8.25M20.7451 15.75C21.3661 15.75 21.8701 15.246 21.8701 14.625V13.125C21.8701 12.504 21.3661 12 20.7451 12M20.7451 15.75H19.2451M18.1201 18.375V13.125M18.1201 18.375V16.875C18.1201 16.254 18.6241 15.75 19.2451 15.75M20.7451 4.5H3.49512M20.7451 4.5H19.2451C18.6241 4.5 18.1201 5.004 18.1201 5.625M3.49512 4.5H4.99512C5.61612 4.5 6.12012 5.004 6.12012 5.625M18.1201 5.625C18.1201 5.004 17.6161 4.5 16.9951 4.5H7.24512C6.62412 4.5 6.12012 5.004 6.12012 5.625M18.1201 5.625V7.125C18.1201 7.42337 18.2386 7.70952 18.4496 7.9205C18.6606 8.13147 18.9467 8.25 19.2451 8.25M18.1201 5.625V10.875M20.7451 8.25H19.2451M20.7451 8.25C21.3661 8.25 21.8701 8.754 21.8701 9.375V10.875C21.8701 11.496 21.3661 12 20.7451 12M6.12012 5.625V7.125C6.12012 7.746 5.61612 8.25 4.99512 8.25M6.12012 5.625V10.875M3.49512 8.25H4.99512M3.49512 8.25C2.87412 8.25 2.37012 8.754 2.37012 9.375V10.875C2.37012 11.496 2.87412 12 3.49512 12M4.99512 8.25C5.61612 8.25 6.12012 8.754 6.12012 9.375V10.875M3.49512 12H4.99512M6.12012 10.875C6.12012 11.1734 6.23864 11.4595 6.44962 11.6705C6.6606 11.8815 6.94675 12 7.24512 12M6.12012 10.875C6.12012 11.496 5.61612 12 4.99512 12M19.2451 8.25C18.6241 8.25 18.1201 8.754 18.1201 9.375V10.875M18.1201 10.875C18.1201 11.496 17.6161 12 16.9951 12M18.1201 10.875C18.1201 11.496 18.6241 12 19.2451 12M20.7451 12H19.2451M7.24512 12H16.9951M7.24512 12C6.62412 12 6.12012 12.504 6.12012 13.125M16.9951 12C17.6161 12 18.1201 12.504 18.1201 13.125M6.12012 13.125V14.625C6.12012 15.246 5.61612 15.75 4.99512 15.75M6.12012 13.125C6.12012 12.504 5.61612 12 4.99512 12M19.2451 12C18.6241 12 18.1201 12.504 18.1201 13.125M18.1201 13.125V14.625C18.1201 15.246 18.6241 15.75 19.2451 15.75" stroke="black" stroke-width="1.5" stroke-linecap="round" stroke-linejoin="round"/>
</svg>
