<svg width="25" height="24" viewBox="0 0 25 24" fill="none" xmlns="http://www.w3.org/2000/svg">
<path d="M10.6201 6H20.3701M10.6201 6C10.6201 6.39782 10.4621 6.77936 10.1808 7.06066C9.89947 7.34196 9.51794 7.5 9.12012 7.5C8.72229 7.5 8.34076 7.34196 8.05946 7.06066C7.77815 6.77936 7.62012 6.39782 7.62012 6M10.6201 6C10.6201 5.60218 10.4621 5.22064 10.1808 4.93934C9.89947 4.65804 9.51794 4.5 9.12012 4.5C8.72229 4.5 8.34076 4.65804 8.05946 4.93934C7.77815 5.22064 7.62012 5.60218 7.62012 6M7.62012 6H3.87012M10.6201 18H20.3701M10.6201 18C10.6201 18.3978 10.4621 18.7794 10.1808 19.0607C9.89947 19.342 9.51794 19.5 9.12012 19.5C8.72229 19.5 8.34076 19.342 8.05946 19.0607C7.77815 18.7794 7.62012 18.3978 7.62012 18M10.6201 18C10.6201 17.6022 10.4621 17.2206 10.1808 16.9393C9.89947 16.658 9.51794 16.5 9.12012 16.5C8.72229 16.5 8.34076 16.658 8.05946 16.9393C7.77815 17.2206 7.62012 17.6022 7.62012 18M7.62012 18H3.87012M16.6201 12H20.3701M16.6201 12C16.6201 12.3978 16.4621 12.7794 16.1808 13.0607C15.8995 13.342 15.5179 13.5 15.1201 13.5C14.7223 13.5 14.3408 13.342 14.0595 13.0607C13.7782 12.7794 13.6201 12.3978 13.6201 12M16.6201 12C16.6201 11.6022 16.4621 11.2206 16.1808 10.9393C15.8995 10.658 15.5179 10.5 15.1201 10.5C14.7223 10.5 14.3408 10.658 14.0595 10.9393C13.7782 11.2206 13.6201 11.6022 13.6201 12M13.6201 12H3.87012" stroke="black" stroke-width="1.5" stroke-linecap="round" stroke-linejoin="round"/>
</svg>
