<svg width="25" height="24" viewBox="0 0 25 24" fill="none" xmlns="http://www.w3.org/2000/svg">
<path fill-rule="evenodd" clip-rule="evenodd" d="M12.5758 1.98944C12.7777 2.01523 12.9604 2.12194 13.082 2.2851C13.7969 3.2439 14.7318 4.01676 15.808 4.53854C15.8095 4.5393 15.8111 4.54007 15.8127 4.54084C17.6829 5.3834 19.2096 6.83962 20.1395 8.66864C21.0736 10.5058 21.349 12.6078 20.9197 14.6235C20.4904 16.6393 19.3824 18.4467 17.7808 19.7438C16.1793 21.0409 14.1811 21.7492 12.1202 21.7504H12.1197C10.3568 21.7503 8.63278 21.2325 7.16157 20.2612C5.69037 19.29 4.53681 17.908 3.84408 16.2869C3.15135 14.6658 2.94997 12.877 3.26492 11.1425C3.57988 9.40794 4.3973 7.8041 5.61573 6.53004C5.77002 6.36871 5.98815 6.28449 6.21082 6.30028C6.43349 6.31607 6.63756 6.43023 6.76753 6.61172C7.24123 7.27318 7.81735 7.85146 8.47201 8.32597C8.61778 7.33363 8.91645 6.36721 9.35961 5.46178C9.98907 4.17569 10.8946 3.04433 12.0115 2.14837C12.1702 2.02103 12.3739 1.96366 12.5758 1.98944ZM12.3925 3.80855C11.7013 4.4738 11.1303 5.25612 10.7069 6.1212C10.1744 7.20908 9.88857 8.40105 9.86967 9.6121C9.86563 9.87117 9.72815 10.1098 9.50606 10.2433C9.28397 10.3767 9.00872 10.3861 8.77807 10.268C7.77678 9.75559 6.88247 9.06203 6.13909 8.22521C5.43222 9.15949 4.95153 10.2499 4.74079 11.4105C4.47832 12.8559 4.64615 14.3466 5.22342 15.6975C5.80069 17.0484 6.762 18.2001 7.988 19.0094C9.21388 19.8187 10.6504 20.2502 12.1193 20.2504M12.3925 3.80855C13.1617 4.66606 14.0907 5.36913 15.1301 5.87684C15.145 5.88478 15.1603 5.89222 15.1758 5.89915C16.7439 6.59986 18.024 7.81743 18.8024 9.34845C19.5808 10.8795 19.8103 12.6312 19.4526 14.3111C19.0948 15.9909 18.1714 17.4972 16.8368 18.5782C15.5021 19.6591 13.8369 20.2494 12.1194 20.2504" fill="black"/>
<path fill-rule="evenodd" clip-rule="evenodd" d="M12.1145 9.97429C12.2778 9.82821 12.4968 9.76081 12.7139 9.78981C13.8456 9.94093 14.8774 10.5165 15.6005 11.4C16.3236 12.2834 16.6839 13.4087 16.6084 14.5479C16.5329 15.687 16.0272 16.7549 15.1938 17.5352C14.3604 18.3154 13.2616 18.7498 12.1199 18.7502H12.1198C11.4083 18.7503 10.7069 18.5817 10.0732 18.2582C9.43947 17.9347 8.8915 17.4656 8.47423 16.8893C8.05697 16.313 7.7823 15.6459 7.67278 14.9429C7.56325 14.2399 7.62199 13.5209 7.84417 12.845C7.91935 12.6163 8.09976 12.4376 8.32917 12.3645C8.55859 12.2915 8.80911 12.3331 9.00267 12.4762C9.35364 12.7358 9.73494 12.9498 10.1373 13.1139C10.4881 11.9085 11.1705 10.8191 12.1145 9.97429ZM12.8543 11.3419C12.0972 12.1196 11.598 13.1157 11.4308 14.1941C11.3986 14.4018 11.2808 14.5864 11.106 14.703C10.9312 14.8197 10.7155 14.8577 10.5114 14.8077C10.029 14.6897 9.56227 14.5189 9.11954 14.2991C9.12179 14.437 9.13355 14.575 9.1549 14.712C9.22792 15.1807 9.41103 15.6254 9.6892 16.0096C9.96738 16.3938 10.3327 16.7065 10.7552 16.9222C11.1776 17.1378 11.6451 17.2502 12.1194 17.2502M12.8543 11.3419C13.4742 11.4987 14.031 11.8506 14.4398 12.3501C14.9218 12.939 15.162 13.6892 15.1117 14.4486C15.0614 15.2081 14.7242 15.92 14.1686 16.4402C13.6131 16.9603 12.8806 17.2499 12.1196 17.2502" fill="black"/>
</svg>
