<svg width="25" height="24" viewBox="0 0 25 24" fill="none" xmlns="http://www.w3.org/2000/svg">
<path d="M15.1201 19.128C15.9731 19.3757 16.8569 19.5009 17.7451 19.5C19.1735 19.5021 20.5834 19.1764 21.8661 18.548C21.9041 17.6517 21.6488 16.7675 21.1389 16.0293C20.6291 15.2912 19.8925 14.7394 19.0408 14.4575C18.1892 14.1757 17.2688 14.1791 16.4193 14.4674C15.5698 14.7557 14.8374 15.313 14.3331 16.055M15.1201 19.128V19.125C15.1201 18.012 14.8341 16.965 14.3331 16.055M15.1201 19.128V19.234C13.1956 20.3931 10.9908 21.0038 8.74414 21C6.41314 21 4.23214 20.355 2.37014 19.234L2.36914 19.125C2.36837 17.7095 2.83875 16.3339 3.70612 15.2153C4.57349 14.0966 5.78851 13.2984 7.15963 12.9466C8.53075 12.5948 9.97996 12.7093 11.2788 13.2721C12.5776 13.8349 13.6522 14.814 14.3331 16.055M12.1201 6.375C12.1201 7.27011 11.7646 8.12855 11.1316 8.76149C10.4987 9.39442 9.64025 9.75 8.74514 9.75C7.85004 9.75 6.99159 9.39442 6.35866 8.76149C5.72572 8.12855 5.37014 7.27011 5.37014 6.375C5.37014 5.47989 5.72572 4.62145 6.35866 3.98851C6.99159 3.35558 7.85004 3 8.74514 3C9.64025 3 10.4987 3.35558 11.1316 3.98851C11.7646 4.62145 12.1201 5.47989 12.1201 6.375ZM20.3701 8.625C20.3701 9.32119 20.0936 9.98887 19.6013 10.4812C19.109 10.9734 18.4413 11.25 17.7451 11.25C17.0489 11.25 16.3813 10.9734 15.889 10.4812C15.3967 9.98887 15.1201 9.32119 15.1201 8.625C15.1201 7.92881 15.3967 7.26113 15.889 6.76884C16.3813 6.27656 17.0489 6 17.7451 6C18.4413 6 19.109 6.27656 19.6013 6.76884C20.0936 7.26113 20.3701 7.92881 20.3701 8.625Z" stroke="black" stroke-width="1.5" stroke-linecap="round" stroke-linejoin="round"/>
</svg>
