<svg width="24" height="24" viewBox="0 0 24 24" fill="none" xmlns="http://www.w3.org/2000/svg">
<g clip-path="url(#clip0_215_2526)">
<path d="M6.15 9.86319V10.028V14.849H7.85V10.014V9.85186L8.01165 9.86445C8.40094 9.89478 8.75528 9.94446 9.0741 10.014C8.99275 9.47588 8.92694 8.89143 8.88826 8.2584C8.60868 8.21618 8.30955 8.18312 7.98949 8.16063L7.85 8.15083V8.011V4.914V4.86632L7.87753 4.82739L8.85 3.45232V0.15H5.15V3.48093L6.12206 4.84181L6.15 4.88093V4.929V8.021V8.15972L6.0117 8.17054C3.79611 8.3439 2.58834 9.0464 1.93202 9.81817C1.27386 10.5921 1.15 11.4594 1.15 12C1.15 12.751 1.4929 13.4186 1.78615 13.9839L1.78621 13.984L1.79047 13.9923C1.8622 14.1308 1.94882 14.2981 2.01787 14.4504C2.05309 14.5282 2.08499 14.6047 2.10835 14.6734C2.1304 14.7384 2.15 14.8108 2.15 14.875V14.8772H2.14998C2.14934 14.9214 2.13601 14.9631 2.12338 14.9948C2.1098 15.0289 2.09167 15.0644 2.07166 15.0995C2.03159 15.1697 1.97783 15.2488 1.91999 15.3282C1.80406 15.4873 1.66265 15.66 1.55899 15.7861C0.94918 16.5321 0.15 17.5147 0.15 19C0.15 21.2996 2.24476 23.85 7 23.85C7.64132 23.85 8.23372 23.8038 8.77934 23.7175C8.42966 23.2449 8.16428 22.7054 8.00838 22.0997C7.68978 22.1328 7.35318 22.15 7 22.15C5.3369 22.15 4.05564 21.7679 3.18527 21.1837C2.3148 20.5993 1.85 19.8071 1.85 19C1.85 18.1168 2.36075 17.492 2.86037 16.8808L2.87485 16.8631C3.37696 16.2486 3.85 15.6622 3.85 14.875C3.85 14.2765 3.57976 13.7487 3.2959 13.2012L6.15 9.86319ZM6.15 9.86319L5.98592 9.87866C5.26857 9.94631 4.49521 10.0972 3.89676 10.415C3.2924 10.736 2.85 11.2386 2.85 12C2.85 12.1837 2.91423 12.3879 2.99692 12.5862C3.08051 12.7867 3.19061 12.9986 3.29524 13.1999L3.29583 13.201L6.15 9.86319ZM23.8501 20.668H23.85V20.818C23.85 22.0074 23.1951 22.759 22.346 23.2211C21.4906 23.6867 20.4489 23.85 19.727 23.85H14.273C13.5511 23.85 12.5094 23.6867 11.654 23.2211C10.8049 22.759 10.15 22.0074 10.15 20.818C10.15 19.1403 10.8658 17.9785 11.4596 17.0189L11.4596 17.0188L11.4731 16.9971C11.937 16.246 12.332 15.6066 12.332 14.818C12.332 13.983 12.1249 13.1582 11.892 12.2303L11.8895 12.2205L11.8895 12.2204C11.5717 10.9573 11.1821 9.29552 11.1525 7.15H12.8578C12.8724 7.38221 12.9145 7.78088 13.0356 8.23433C13.1881 8.80529 13.4687 9.47383 13.9878 10.0039L13.9878 10.004C14.4931 10.5198 15.1597 10.86 15.9708 11.0269L16.151 11.064V10.88V6V5.86023L16.0116 5.85037C15.5928 5.82075 15.1209 5.58908 14.7494 5.29544C14.5651 5.14981 14.4116 4.99359 14.3055 4.84791C14.1961 4.69751 14.151 4.57723 14.151 4.5C14.151 4.15288 14.268 3.70481 14.4537 3.21746C14.6381 2.73333 14.885 2.22379 15.1334 1.75809C15.3815 1.29281 15.6299 0.873697 15.8162 0.570802C15.9094 0.419423 15.987 0.297239 16.0412 0.213023C16.0568 0.188801 16.0704 0.167724 16.082 0.15H17.851V10.95V11.1225L18.0219 11.0985C19.5613 10.8824 20.3499 10.0149 20.7474 9.18359C21.053 8.54466 21.1273 7.92907 21.1453 7.65H22.8504C22.8329 9.85452 22.4325 11.2812 22.107 12.4409L22.1066 12.4424L22.1066 12.4425L22.105 12.4481C21.8655 13.2997 21.67 13.9949 21.67 14.818C21.67 15.6066 22.065 16.246 22.5289 16.9971L22.5424 17.0188L22.5424 17.0189C23.1174 17.9487 23.809 19.0706 23.8501 20.668ZM21.7376 21.5999C21.9191 21.459 22.0626 21.2766 22.1204 21.046L22.15 21.0608V20.818C22.15 19.6182 21.6285 18.7752 21.0998 17.9206L21.0946 17.9121C21.0946 17.9121 21.0946 17.9121 21.0946 17.9121C20.5539 17.0373 19.968 16.0841 19.968 14.818C19.968 13.9037 20.1486 13.1364 20.3666 12.3438L20.4602 12.0035L20.1503 12.1723C19.3842 12.5893 18.4302 12.849 17.257 12.849C15.9195 12.849 14.7838 12.5733 13.8552 12.0352L13.5495 11.8581L13.6344 12.201C13.851 13.0763 14.03 13.9124 14.03 14.817C14.03 16.0831 13.4441 17.0374 12.9034 17.9111L12.9034 17.9111L12.8966 17.9222C12.3695 18.7749 11.848 19.6184 11.848 20.817C11.848 21.1579 12.0205 21.4132 12.258 21.5974C12.4917 21.7786 12.7953 21.8975 13.0864 21.9768C13.6696 22.1358 14.2526 22.149 14.271 22.149H19.725C19.7415 22.149 20.3245 22.1374 20.9082 21.9791C21.1996 21.9002 21.5036 21.7814 21.7376 21.5999ZM18.85 18.15V19.85H15.15V18.15H18.85Z" fill="black" stroke="white" stroke-width="0.3"/>
</g>
<defs>
<clipPath id="clip0_215_2526">
<rect width="24" height="24" fill="white"/>
</clipPath>
</defs>
</svg>
