<svg width="25" height="24" viewBox="0 0 25 24" fill="none" xmlns="http://www.w3.org/2000/svg">
<path d="M7.61313 18.75C7.18813 18.75 6.79313 18.514 6.63813 18.118C6.29487 17.2443 6.11914 16.3137 6.12013 15.375C6.11754 13.6941 6.68196 12.0614 7.72213 10.741C7.87313 10.549 8.09513 10.432 8.32213 10.344C8.79513 10.161 9.21213 9.83 9.53413 9.42C10.3104 8.42964 11.2849 7.61221 12.3951 7.02C13.1181 6.636 13.7451 6.064 14.0481 5.305C14.2609 4.77325 14.3702 4.20575 14.3701 3.633V3C14.3701 2.80109 14.4491 2.61032 14.5898 2.46967C14.7305 2.32902 14.9212 2.25 15.1201 2.25C15.7169 2.25 16.2892 2.48705 16.7111 2.90901C17.1331 3.33097 17.3701 3.90326 17.3701 4.5C17.3701 5.652 17.1101 6.743 16.6471 7.718C16.3811 8.276 16.7541 9 17.3721 9H20.4981C21.5241 9 22.4431 9.694 22.5521 10.715C22.5971 11.137 22.6201 11.565 22.6201 12C22.6243 14.7363 21.6892 17.3912 19.9711 19.521C19.5831 20.003 18.9841 20.25 18.3661 20.25H14.3501C13.8666 20.2498 13.3861 20.1721 12.9271 20.02L9.81313 18.98C9.35423 18.8274 8.87374 18.7497 8.39013 18.75H7.61313ZM2.45113 10.977C1.90005 12.3777 1.61812 13.8698 1.62013 15.375C1.61886 16.5633 1.79411 17.7452 2.14013 18.882C2.40013 19.732 3.22413 20.25 4.11313 20.25H5.02013C5.46513 20.25 5.74013 19.752 5.54313 19.352C4.93327 18.1151 4.61706 16.7541 4.61913 15.375C4.61913 13.667 5.09513 12.07 5.92113 10.709C6.16613 10.306 5.89313 9.75 5.42113 9.75H4.37013C3.53813 9.75 2.75713 10.203 2.45113 10.977Z" fill="black"/>
</svg>
