<svg width="25" height="24" viewBox="0 0 25 24" fill="none" xmlns="http://www.w3.org/2000/svg">
<path d="M11.7651 20.9101L11.7581 20.9071L11.7361 20.8951C11.6074 20.8243 11.4797 20.7516 11.3531 20.6771C9.83093 19.7726 8.40839 18.71 7.10912 17.5071C4.80812 15.3601 2.37012 12.1741 2.37012 8.25007C2.37012 5.32207 4.83412 3.00007 7.80812 3.00007C8.63487 2.99602 9.4519 3.17841 10.1984 3.53368C10.945 3.88894 11.6018 4.40794 12.1201 5.05207C12.6385 4.40781 13.2955 3.88873 14.0422 3.53346C14.789 3.17819 15.6062 2.99587 16.4331 3.00007C19.4061 3.00007 21.8701 5.32207 21.8701 8.25007C21.8701 12.1751 19.4321 15.3611 17.1311 17.5061C15.8319 18.709 14.4093 19.7716 12.8871 20.6761C12.7605 20.7509 12.6328 20.8239 12.5041 20.8951L12.4821 20.9071L12.4751 20.9111L12.4721 20.9121C12.3637 20.9695 12.2428 20.9995 12.1201 20.9995C11.9974 20.9995 11.8766 20.9695 11.7681 20.9121L11.7651 20.9101Z" fill="black"/>
</svg>
