<svg width="25" height="24" viewBox="0 0 25 24" fill="none" xmlns="http://www.w3.org/2000/svg">
<path d="M11.3799 6C9.89653 6 8.44648 6.43987 7.21311 7.26398C5.97974 8.08809 5.01845 9.25943 4.45079 10.6299C3.88313 12.0003 3.73461 13.5083 4.024 14.9632C4.31339 16.418 5.02769 17.7544 6.07659 18.8033C7.12548 19.8522 8.46185 20.5665 9.91671 20.8559C11.3716 21.1453 12.8796 20.9968 14.25 20.4291C15.6205 19.8614 16.7918 18.9001 17.6159 17.6668C18.44 16.4334 18.8799 14.9834 18.8799 13.5H11.3799V6Z" stroke="currentColor" stroke-width="1.5" stroke-linecap="round" stroke-linejoin="round"/>
<path d="M14.3799 10.5H21.8799C21.8799 8.51088 21.0897 6.60322 19.6832 5.1967C18.2767 3.79018 16.369 3 14.3799 3V10.5Z" stroke="currentColor" stroke-width="1.5" stroke-linecap="round" stroke-linejoin="round"/>
</svg>
