<svg width="25" height="24" viewBox="0 0 25 24" fill="none" xmlns="http://www.w3.org/2000/svg">
<path d="M3.12988 12.75V12C3.12988 11.4033 3.36694 10.831 3.78889 10.409C4.21085 9.98705 4.78315 9.75 5.37988 9.75H20.3799C20.9766 9.75 21.5489 9.98705 21.9709 10.409C22.3928 10.831 22.6299 11.4033 22.6299 12V12.75M13.9399 6.31L11.8199 4.19C11.6806 4.05055 11.5152 3.93992 11.3332 3.86442C11.1511 3.78892 10.956 3.75004 10.7589 3.75H5.37988C4.78315 3.75 4.21085 3.98705 3.78889 4.40901C3.36694 4.83097 3.12988 5.40326 3.12988 6V18C3.12988 18.5967 3.36694 19.169 3.78889 19.591C4.21085 20.0129 4.78315 20.25 5.37988 20.25H20.3799C20.9766 20.25 21.5489 20.0129 21.9709 19.591C22.3928 19.169 22.6299 18.5967 22.6299 18V9C22.6299 8.40326 22.3928 7.83097 21.9709 7.40901C21.5489 6.98705 20.9766 6.75 20.3799 6.75H15.0009C14.6032 6.74965 14.2209 6.59138 13.9399 6.31Z" stroke="black" stroke-width="1.5" stroke-linecap="round" stroke-linejoin="round"/>
</svg>
