<svg width="25" height="24" viewBox="0 0 25 24" fill="none" xmlns="http://www.w3.org/2000/svg">
<path d="M15.6199 8.99954L15.2739 17.9995M10.4859 17.9995L10.1399 8.99954M20.1079 5.78954C20.4499 5.84154 20.7899 5.89654 21.1299 5.95554M20.1079 5.78954L19.0399 19.6725C18.9963 20.2378 18.7409 20.7657 18.3249 21.1508C17.9089 21.5359 17.3628 21.7497 16.7959 21.7495H8.96388C8.39698 21.7497 7.85091 21.5359 7.43486 21.1508C7.01882 20.7657 6.76347 20.2378 6.71988 19.6725L5.65188 5.78954M20.1079 5.78954C18.9538 5.61506 17.7936 5.48264 16.6299 5.39254M5.65188 5.78954C5.30988 5.84054 4.96988 5.89554 4.62988 5.95454M5.65188 5.78954C6.80602 5.61506 7.96612 5.48264 9.12988 5.39254M16.6299 5.39254V4.47654C16.6299 3.29654 15.7199 2.31254 14.5399 2.27554C13.4335 2.24018 12.3263 2.24018 11.2199 2.27554C10.0399 2.31254 9.12988 3.29754 9.12988 4.47654V5.39254M16.6299 5.39254C14.1336 5.19962 11.6262 5.19962 9.12988 5.39254" stroke="black" stroke-width="1.5" stroke-linecap="round" stroke-linejoin="round"/>
</svg>
