<svg width="25" height="24" viewBox="0 0 25 24" fill="none" xmlns="http://www.w3.org/2000/svg">
<path d="M12.8799 6V18M9.87988 15.182L10.7589 15.841C11.9299 16.72 13.8289 16.72 15.0009 15.841C16.1729 14.962 16.1729 13.538 15.0009 12.659C14.4159 12.219 13.6479 12 12.8799 12C12.1549 12 11.4299 11.78 10.8769 11.341C9.77088 10.462 9.77088 9.038 10.8769 8.159C11.9829 7.28 13.7769 7.28 14.8829 8.159L15.2979 8.489M21.8799 12C21.8799 13.1819 21.6471 14.3522 21.1948 15.4442C20.7425 16.5361 20.0796 17.5282 19.2438 18.364C18.4081 19.1997 17.416 19.8626 16.324 20.3149C15.2321 20.7672 14.0618 21 12.8799 21C11.698 21 10.5277 20.7672 9.43573 20.3149C8.3438 19.8626 7.35165 19.1997 6.51592 18.364C5.68019 17.5282 5.01726 16.5361 4.56497 15.4442C4.11267 14.3522 3.87988 13.1819 3.87988 12C3.87988 9.61305 4.82809 7.32387 6.51592 5.63604C8.20375 3.94821 10.4929 3 12.8799 3C15.2668 3 17.556 3.94821 19.2438 5.63604C20.9317 7.32387 21.8799 9.61305 21.8799 12Z" stroke="black" stroke-width="1.5" stroke-linecap="round" stroke-linejoin="round"/>
</svg>
