<svg width="25" height="24" viewBox="0 0 25 24" fill="none" xmlns="http://www.w3.org/2000/svg">
<g clip-path="url(#clip0_720_28146)">
<path d="M21.8799 11.25V19.5C21.8799 19.8978 21.7218 20.2794 21.4405 20.5607C21.1592 20.842 20.7777 21 20.3799 21H6.12988C5.73206 21 5.35053 20.842 5.06922 20.5607C4.78792 20.2794 4.62988 19.8978 4.62988 19.5V11.25M12.8799 4.875C12.8799 4.35583 12.7259 3.84831 12.4375 3.41663C12.1491 2.98495 11.7391 2.6485 11.2594 2.44982C10.7798 2.25114 10.252 2.19915 9.74277 2.30044C9.23357 2.40173 8.76584 2.65173 8.39873 3.01885C8.03161 3.38596 7.78161 3.85369 7.68032 4.36289C7.57904 4.87209 7.63102 5.39989 7.8297 5.87954C8.02838 6.3592 8.36483 6.76917 8.79651 7.05761C9.22819 7.34605 9.73571 7.5 10.2549 7.5H12.8799M12.8799 4.875V7.5M12.8799 4.875C12.8799 4.35583 13.0338 3.84831 13.3223 3.41663C13.6107 2.98495 14.0207 2.6485 14.5003 2.44982C14.98 2.25114 15.5078 2.19915 16.017 2.30044C16.5262 2.40173 16.9939 2.65173 17.361 3.01885C17.7282 3.38596 17.9782 3.85369 18.0794 4.36289C18.1807 4.87209 18.1287 5.39989 17.9301 5.87954C17.7314 6.3592 17.3949 6.76917 16.9633 7.05761C16.5316 7.34605 16.0241 7.5 15.5049 7.5H12.8799M12.8799 7.5V21M4.25488 11.25H22.2549C22.8759 11.25 23.3799 10.746 23.3799 10.125V8.625C23.3799 8.004 22.8759 7.5 22.2549 7.5H4.25488C3.63388 7.5 3.12988 8.004 3.12988 8.625V10.125C3.12988 10.746 3.63388 11.25 4.25488 11.25Z" stroke="currentColor" stroke-width="1.5" stroke-linecap="round" stroke-linejoin="round"/>
</g>
<defs>
<clipPath id="clip0_720_28146">
<rect width="24" height="24" fill="white" transform="translate(0.879883)"/>
</clipPath>
</defs>
</svg>
