<svg width="25" height="24" viewBox="0 0 25 24" fill="none" xmlns="http://www.w3.org/2000/svg">
<path d="M9.87988 8.25H8.37988C7.78315 8.25 7.21085 8.48705 6.78889 8.90901C6.36694 9.33097 6.12988 9.90326 6.12988 10.5V19.5C6.12988 20.0967 6.36694 20.669 6.78889 21.091C7.21085 21.5129 7.78315 21.75 8.37988 21.75H17.3799C17.9766 21.75 18.5489 21.5129 18.9709 21.091C19.3928 20.669 19.6299 20.0967 19.6299 19.5V10.5C19.6299 9.90326 19.3928 9.33097 18.9709 8.90901C18.5489 8.48705 17.9766 8.25 17.3799 8.25H15.8799M15.8799 5.25L12.8799 2.25M12.8799 2.25L9.87988 5.25M12.8799 2.25V15" stroke="black" stroke-width="1.5" stroke-linecap="round" stroke-linejoin="round"/>
</svg>
