<svg width="25" height="24" viewBox="0 0 25 24" fill="none" xmlns="http://www.w3.org/2000/svg">
<mask id="mask0_165_2726" style="mask-type:alpha" maskUnits="userSpaceOnUse" x="1" y="1" width="22" height="23">
<path d="M1.4541 1.33567V23.0797H22.7634V1.33301H1.4541V1.33567Z" fill="white"/>
</mask>
<g mask="url(#mask0_165_2726)">
<path fill-rule="evenodd" clip-rule="evenodd" d="M8.77398 1.93063C6.09938 2.86303 3.89101 4.79703 2.61399 7.32529C2.17678 8.19008 1.85834 9.10995 1.66732 10.06C1.18916 12.4429 1.52046 14.9174 2.60865 17.0906C3.32007 18.4991 4.32697 19.7375 5.56065 20.7213C6.72646 21.65 8.0714 22.3282 9.51132 22.7133C11.3233 23.1986 13.2513 23.188 15.0753 22.772C16.7345 22.3972 18.2685 21.5998 19.5287 20.4573C20.8447 19.248 21.7847 17.6573 22.282 15.9453C22.826 14.0813 22.8953 12.088 22.5567 10.172H12.3287V14.4133H18.254C18.1357 15.0907 17.8822 15.7373 17.5086 16.3146C17.1349 16.8919 16.6489 17.388 16.0793 17.7733C15.3554 18.2524 14.5392 18.5748 13.6833 18.72C12.83 18.8666 11.9407 18.884 11.0873 18.7146C10.2175 18.5363 9.39405 18.1799 8.66865 17.668C7.50707 16.8477 6.63553 15.6802 6.17932 14.3333C5.71489 12.9613 5.71489 11.4746 6.17932 10.1026C6.50632 9.13869 7.04585 8.26059 7.75799 7.53329C8.64039 6.62559 9.77047 5.99772 11.0073 5.72796C12.0654 5.50386 13.1626 5.54786 14.1993 5.85596C15.0777 6.1257 15.8802 6.59846 16.542 7.23596L18.542 5.23596C18.8927 4.87996 19.2607 4.53596 19.5993 4.16663C18.585 3.22249 17.3955 2.48638 16.098 1.99996C13.737 1.13905 11.1521 1.11457 8.77532 1.93063" fill="white"/>
</g>
<mask id="mask1_165_2726" style="mask-type:alpha" maskUnits="userSpaceOnUse" x="2" y="1" width="18" height="10">
<path d="M19.5986 1.33398H2.61328V10.094H19.5999V1.33398H19.5986Z" fill="white"/>
</mask>
<g mask="url(#mask1_165_2726)">
<path fill-rule="evenodd" clip-rule="evenodd" d="M8.77461 1.93006C11.1513 1.1152 13.7352 1.13778 16.0973 1.99406C17.3946 2.47406 18.5813 3.22073 19.5986 4.16206C19.2599 4.53006 18.8919 4.87539 18.5413 5.23139L16.5413 7.23139C15.878 6.59587 15.076 6.12341 14.1986 5.85139C13.1625 5.53996 12.0645 5.49547 11.0066 5.72206C9.77995 5.98606 8.63995 6.62873 7.75728 7.52873C7.04446 8.25394 6.50478 9.1309 6.17861 10.0941C4.99195 9.17273 3.80528 8.25406 2.61328 7.33006C3.88843 4.79917 6.09723 2.86288 8.77328 1.93006" fill="#EA4335"/>
</g>
<path fill-rule="evenodd" clip-rule="evenodd" d="M1.67383 10.053C1.86583 9.10636 2.18049 8.18369 2.62049 7.31836C3.80716 8.24103 4.99383 9.15836 6.18583 10.0824C5.7181 11.4543 5.7181 12.9425 6.18583 14.3144C4.99916 15.2384 3.81249 16.161 2.62583 17.0784C1.52833 14.91 1.19298 12.4353 1.67383 10.053Z" fill="#FBBC05"/>
<path fill-rule="evenodd" clip-rule="evenodd" d="M12.3289 10.165H22.5569C22.9047 12.0854 22.8108 14.0597 22.2823 15.9384C21.7849 17.6517 20.8449 19.241 19.5289 20.4517L16.0756 17.769C16.645 17.3834 17.131 16.8871 17.5044 16.3096C17.8778 15.732 18.131 15.0852 18.2489 14.4077H12.3223C12.3289 12.9944 12.3289 11.5784 12.3289 10.165Z" fill="#4285F4"/>
<path fill-rule="evenodd" clip-rule="evenodd" d="M2.61328 17.0847C3.79995 16.166 4.98661 15.2433 6.17328 14.3193C6.63104 15.6661 7.5022 16.834 8.66261 17.6567C9.38897 18.1678 10.2127 18.5241 11.0826 18.7033C11.9359 18.878 12.8186 18.8553 13.6773 18.7087C14.5337 18.5638 15.3503 18.2413 16.0746 17.762L19.5279 20.4447C18.2839 21.5967 16.7226 22.3793 15.0746 22.7593C13.2506 23.174 11.3226 23.186 9.51062 22.7007C8.06977 22.318 6.72435 21.6396 5.55995 20.7087C4.32842 19.7268 3.32331 18.4906 2.61328 17.0847Z" fill="#34A853"/>
</svg>
