<svg width="25" height="24" viewBox="0 0 25 24" fill="none" xmlns="http://www.w3.org/2000/svg">
<path d="M8.37012 6.75H20.3701M8.37012 12H20.3701M8.37012 17.25H20.3701M3.87012 6.75H3.87712V6.758H3.87012V6.75ZM4.24512 6.75C4.24512 6.84946 4.20561 6.94484 4.13528 7.01516C4.06496 7.08549 3.96957 7.125 3.87012 7.125C3.77066 7.125 3.67528 7.08549 3.60495 7.01516C3.53463 6.94484 3.49512 6.84946 3.49512 6.75C3.49512 6.65054 3.53463 6.55516 3.60495 6.48484C3.67528 6.41451 3.77066 6.375 3.87012 6.375C3.96957 6.375 4.06496 6.41451 4.13528 6.48484C4.20561 6.55516 4.24512 6.65054 4.24512 6.75ZM3.87012 12H3.87712V12.008H3.87012V12ZM4.24512 12C4.24512 12.0995 4.20561 12.1948 4.13528 12.2652C4.06496 12.3355 3.96957 12.375 3.87012 12.375C3.77066 12.375 3.67528 12.3355 3.60495 12.2652C3.53463 12.1948 3.49512 12.0995 3.49512 12C3.49512 11.9005 3.53463 11.8052 3.60495 11.7348C3.67528 11.6645 3.77066 11.625 3.87012 11.625C3.96957 11.625 4.06496 11.6645 4.13528 11.7348C4.20561 11.8052 4.24512 11.9005 4.24512 12ZM3.87012 17.25H3.87712V17.258H3.87012V17.25ZM4.24512 17.25C4.24512 17.3495 4.20561 17.4448 4.13528 17.5152C4.06496 17.5855 3.96957 17.625 3.87012 17.625C3.77066 17.625 3.67528 17.5855 3.60495 17.5152C3.53463 17.4448 3.49512 17.3495 3.49512 17.25C3.49512 17.1505 3.53463 17.0552 3.60495 16.9848C3.67528 16.9145 3.77066 16.875 3.87012 16.875C3.96957 16.875 4.06496 16.9145 4.13528 16.9848C4.20561 17.0552 4.24512 17.1505 4.24512 17.25Z" stroke="black" stroke-width="1.5" stroke-linecap="round" stroke-linejoin="round"/>
</svg>
