<svg width="25" height="24" viewBox="0 0 25 24" fill="none" xmlns="http://www.w3.org/2000/svg">
<path d="M15.1201 10.5C15.1201 11.2956 14.804 12.0587 14.2414 12.6213C13.6788 13.1839 12.9158 13.5 12.1201 13.5C11.3245 13.5 10.5614 13.1839 9.9988 12.6213C9.43619 12.0587 9.12012 11.2956 9.12012 10.5C9.12012 9.70435 9.43619 8.94129 9.9988 8.37868C10.5614 7.81607 11.3245 7.5 12.1201 7.5C12.9158 7.5 13.6788 7.81607 14.2414 8.37868C14.804 8.94129 15.1201 9.70435 15.1201 10.5Z" stroke="black" stroke-width="1.5" stroke-linecap="round" stroke-linejoin="round"/>
<path d="M19.6201 10.5C19.6201 17.642 12.1201 21.75 12.1201 21.75C12.1201 21.75 4.62012 17.642 4.62012 10.5C4.62012 8.51088 5.41029 6.60322 6.81682 5.1967C8.22334 3.79018 10.131 3 12.1201 3C14.1092 3 16.0169 3.79018 17.4234 5.1967C18.8299 6.60322 19.6201 8.51088 19.6201 10.5Z" stroke="black" stroke-width="1.5" stroke-linecap="round" stroke-linejoin="round"/>
</svg>
