<svg width="25" height="24" viewBox="0 0 25 24" fill="none" xmlns="http://www.w3.org/2000/svg">
<path d="M10.4601 15.84C9.76508 15.7797 9.06776 15.7497 8.37012 15.75H7.62012C6.42664 15.75 5.28205 15.2759 4.43814 14.432C3.59422 13.5881 3.12012 12.4435 3.12012 11.25C3.12012 10.0565 3.59422 8.91193 4.43814 8.06802C5.28205 7.22411 6.42664 6.75 7.62012 6.75H8.37012C9.07412 6.75 9.77212 6.72 10.4601 6.66M10.4601 15.84C10.7131 16.802 11.0441 17.732 11.4451 18.623C11.6921 19.173 11.5051 19.833 10.9821 20.134L10.3251 20.514C9.77412 20.832 9.06512 20.631 8.79812 20.053C8.16441 18.682 7.68157 17.2463 7.35812 15.771M10.4601 15.84C10.0671 14.3417 9.8688 12.799 9.87012 11.25C9.87012 9.664 10.0751 8.126 10.4601 6.66M10.4601 15.84C13.5416 16.1041 16.5424 16.9651 19.2951 18.375M10.4601 6.66C13.5416 6.39592 16.5424 5.53493 19.2951 4.125M19.2951 18.375C19.1771 18.755 19.0501 19.129 18.9151 19.5M19.2951 18.375C19.8391 16.6216 20.1794 14.8113 20.3091 12.98M19.2951 4.125C19.1778 3.74689 19.0511 3.37177 18.9151 3M19.2951 4.125C19.8391 5.87844 20.1794 7.6887 20.3091 9.52M20.3091 9.52C20.5632 9.73105 20.7677 9.99547 20.908 10.2945C21.0483 10.5935 21.1211 10.9197 21.1211 11.25C21.1211 11.5803 21.0483 11.9065 20.908 12.2055C20.7677 12.5045 20.5632 12.769 20.3091 12.98M20.3091 9.52C20.3912 10.6719 20.3912 11.8281 20.3091 12.98" stroke="black" stroke-width="1.5" stroke-linecap="round" stroke-linejoin="round"/>
</svg>
