<svg width="25" height="24" viewBox="0 0 25 24" fill="none" xmlns="http://www.w3.org/2000/svg">
<path d="M6.87012 12C6.87012 12.1989 6.7911 12.3897 6.65045 12.5303C6.5098 12.671 6.31903 12.75 6.12012 12.75C5.9212 12.75 5.73044 12.671 5.58979 12.5303C5.44913 12.3897 5.37012 12.1989 5.37012 12C5.37012 11.8011 5.44913 11.6103 5.58979 11.4697C5.73044 11.329 5.9212 11.25 6.12012 11.25C6.31903 11.25 6.5098 11.329 6.65045 11.4697C6.7911 11.6103 6.87012 11.8011 6.87012 12ZM12.8701 12C12.8701 12.1989 12.7911 12.3897 12.6504 12.5303C12.5098 12.671 12.319 12.75 12.1201 12.75C11.9212 12.75 11.7304 12.671 11.5898 12.5303C11.4491 12.3897 11.3701 12.1989 11.3701 12C11.3701 11.8011 11.4491 11.6103 11.5898 11.4697C11.7304 11.329 11.9212 11.25 12.1201 11.25C12.319 11.25 12.5098 11.329 12.6504 11.4697C12.7911 11.6103 12.8701 11.8011 12.8701 12ZM18.8701 12C18.8701 12.1989 18.7911 12.3897 18.6504 12.5303C18.5098 12.671 18.319 12.75 18.1201 12.75C17.9212 12.75 17.7304 12.671 17.5898 12.5303C17.4491 12.3897 17.3701 12.1989 17.3701 12C17.3701 11.8011 17.4491 11.6103 17.5898 11.4697C17.7304 11.329 17.9212 11.25 18.1201 11.25C18.319 11.25 18.5098 11.329 18.6504 11.4697C18.7911 11.6103 18.8701 11.8011 18.8701 12Z" stroke="currentColor" stroke-width="1.5" stroke-linecap="round" stroke-linejoin="round"/>
</svg>
