<svg width="24" height="24" viewBox="0 0 24 24" fill="none" xmlns="http://www.w3.org/2000/svg">
<g clip-path="url(#clip0_215_2521)">
<path d="M9 9.85H8.85V10V18C8.85 18.4702 8.47016 18.85 8 18.85C7.52984 18.85 7.15 18.4702 7.15 18V10V9.85H7H6C5.52984 9.85 5.15 9.47016 5.15 9C5.15 8.52984 5.52984 8.15 6 8.15H7H7.15V8V6C7.15 5.52984 7.52984 5.15 8 5.15C8.47016 5.15 8.85 5.52984 8.85 6V8V8.15H9H10C10.4702 8.15 10.85 8.52984 10.85 9C10.85 9.47016 10.4702 9.85 10 9.85H9ZM17 15.85H16.85V16V18C16.85 18.4702 16.4702 18.85 16 18.85C15.5298 18.85 15.15 18.4702 15.15 18V16V15.85H15H14C13.5298 15.85 13.15 15.4702 13.15 15C13.15 14.5298 13.5298 14.15 14 14.15H15H15.15V14V6C15.15 5.52984 15.5298 5.15 16 5.15C16.4702 5.15 16.85 5.52984 16.85 6V14V14.15H17H18C18.4702 14.15 18.85 14.5298 18.85 15C18.85 15.4702 18.4702 15.85 18 15.85H17ZM5 0.15H19C21.6742 0.15 23.85 2.32584 23.85 5V19C23.85 21.6742 21.6742 23.85 19 23.85H5C2.32584 23.85 0.15 21.6742 0.15 19V5C0.15 2.32584 2.32584 0.15 5 0.15ZM19 22.15C20.7368 22.15 22.15 20.7368 22.15 19V5C22.15 3.26316 20.7368 1.85 19 1.85H5C3.26316 1.85 1.85 3.26316 1.85 5V19C1.85 20.7368 3.26316 22.15 5 22.15H19Z" fill="black" stroke="white" stroke-width="0.3"/>
</g>
<defs>
<clipPath id="clip0_215_2521">
<rect width="24" height="24" fill="white"/>
</clipPath>
</defs>
</svg>
