<svg width="24" height="24" viewBox="0 0 24 24" fill="none" xmlns="http://www.w3.org/2000/svg">
<g clip-path="url(#clip0_215_2520)">
<path d="M18.7571 16.1497H18.7569C18.088 16.1481 17.4255 16.2791 16.8076 16.5349C16.1896 16.7908 15.6285 17.1666 15.1566 17.6405C15.1566 17.6405 15.1566 17.6405 15.1565 17.6405L15.0502 17.5347C13.6383 18.9548 11.9586 20.0806 10.1086 20.847C8.25851 21.6135 6.27477 22.0052 4.27224 21.9997L18.7571 16.1497ZM18.7571 16.1497C20.1072 16.1512 21.4016 16.6882 22.3564 17.6428C23.3112 18.5974 23.8484 19.8918 23.8502 21.2419V22.9997C23.8502 23.2251 23.7607 23.4413 23.6013 23.6007C23.4419 23.7602 23.2257 23.8497 23.0002 23.8497C22.7748 23.8497 22.5586 23.7602 22.3992 23.6007C22.2398 23.4413 22.1502 23.2251 22.1502 22.9997V21.2417V21.2416C22.15 20.5707 21.9508 19.9149 21.5779 19.3572C21.205 18.7994 20.6751 18.3647 20.0552 18.1081C19.4353 17.8514 18.7532 17.7843 18.0951 17.9152C17.4371 18.0462 16.8326 18.3692 16.3582 18.8436L16.3579 18.8439C14.7745 20.4359 12.8911 21.698 10.8167 22.5573C8.74222 23.4165 6.51798 23.8558 4.27265 23.8497H4.27224H3.12224H3.12218C2.53446 23.8499 1.95987 23.6759 1.4711 23.3495C0.982339 23.0231 0.601355 22.5591 0.37635 22.0161C0.151346 21.4732 0.0924292 20.8757 0.207054 20.2993C0.32168 19.7228 0.604696 19.1933 1.0203 18.7778L0.914514 18.672L1.02031 18.7778L1.71331 18.0848L1.7541 18.044L1.75705 17.9864C1.85341 16.1005 2.64756 14.3179 3.98512 12.985L3.98531 12.9848L8.35331 8.61677L8.41238 8.5577L8.39326 8.47637C8.1519 7.44997 8.17717 6.37889 8.46665 5.36502C8.75613 4.35114 9.30021 3.42819 10.0471 2.68396L10.0474 2.68369L10.6804 2.04969L10.6804 2.0497L10.682 2.04809C11.7223 0.974396 13.1245 0.325535 14.6163 0.227451C16.1076 0.129402 17.5821 0.588725 18.7538 1.51629C19.3799 2.03504 19.8899 2.67972 20.2506 3.40845C20.6115 4.13767 20.8148 4.93471 20.8474 5.7477L20.8474 5.74805C20.8817 6.55771 20.7476 7.36567 20.4538 8.1209C20.1599 8.87612 19.7126 9.56218 19.1401 10.1357L18.1403 11.1355L18.7571 16.1497ZM19.1501 5.8194L19.1501 5.81945C19.1741 6.39366 19.0789 6.96662 18.8705 7.50223C18.6622 8.03784 18.3452 8.52451 17.9395 8.93159L17.9393 8.93177L16.9393 9.93177C16.5317 10.3394 16.0436 10.6577 15.5062 10.8662C14.9687 11.0748 14.3937 11.1691 13.8179 11.1431C13.242 11.1172 12.6778 10.9715 12.1613 10.7154C11.6448 10.4593 11.1873 10.0985 10.8181 9.6558L10.8146 9.6516L10.8146 9.65154C10.1599 8.80597 9.84221 7.74757 9.92297 6.68121C10.0037 5.61486 10.4772 4.61638 11.2518 3.87906L11.2908 3.84199L11.8839 3.2479C12.7331 2.39456 13.8852 1.91141 15.0891 1.90371C15.0891 1.90371 15.0892 1.90371 15.0893 1.90371L15.0902 2.05371C15.9917 2.04492 16.8671 2.35562 17.5612 2.93071L19.1501 5.8194ZM19.1501 5.8194C19.1258 5.2419 18.9803 4.67597 18.723 4.15837C18.4657 3.64078 18.1025 3.1831 17.6568 2.81506L19.1501 5.8194ZM21.4532 19.4405C21.8096 19.9736 22 20.6004 22.0002 21.2417L18.8482 1.39971C17.6471 0.448377 16.1354 -0.0227505 14.6064 0.0777737C13.0775 0.178298 11.6405 0.843303 10.5742 1.94371L9.94124 2.57771C9.1762 3.34 8.61893 4.28535 8.32242 5.32383C8.02591 6.36232 8.00003 7.4594 8.24724 8.51071L3.87924 12.8787C2.51532 14.2379 1.70551 16.0557 1.60724 17.9787L0.914241 18.6717C0.477653 19.1082 0.180347 19.6645 0.0599349 20.27C-0.0604775 20.8755 0.00141336 21.5032 0.237778 22.0736C0.474143 22.6439 0.874362 23.1314 1.3878 23.4742C1.90125 23.8171 2.50485 24 3.12224 23.9997H4.27224C6.53741 24.0059 8.7813 23.5627 10.8741 22.6959C12.9668 21.829 14.8669 20.5558 16.4642 18.9497C16.9177 18.4963 17.4955 18.1875 18.1244 18.0623C18.7533 17.9372 19.4053 18.0013 19.9978 18.2467C20.5903 18.492 21.0968 18.9074 21.4532 19.4405ZM9.25213 10.3697L9.14958 10.2232L9.02316 10.3497L5.18749 14.1863C5.18741 14.1864 5.18733 14.1865 5.18725 14.1866C4.34048 15.0284 3.7671 16.1058 3.54193 17.2784L3.50028 17.4953L3.71727 17.4541C4.89095 17.2308 5.97 16.6587 6.81347 15.8126L10.6333 11.9928L10.759 11.8671L10.614 11.7643C10.2053 11.4746 9.83471 11.1345 9.51098 10.7521C9.46601 10.6983 9.42628 10.6393 9.3847 10.5742C9.37494 10.5589 9.36493 10.543 9.35468 10.5267C9.32273 10.476 9.28843 10.4216 9.25213 10.3697Z" fill="black" stroke="white" stroke-width="0.3"/>
</g>
<defs>
<clipPath id="clip0_215_2520">
<rect width="24" height="24" fill="white"/>
</clipPath>
</defs>
</svg>
