<svg width="25" height="24" viewBox="0 0 25 24" fill="none" xmlns="http://www.w3.org/2000/svg">
<path d="M12.1201 18.75C13.7114 18.75 15.2375 18.1179 16.3628 16.9926C17.488 15.8674 18.1201 14.3413 18.1201 12.75V11.25M12.1201 18.75C10.5288 18.75 9.00269 18.1179 7.87748 16.9926C6.75226 15.8674 6.12012 14.3413 6.12012 12.75V11.25M12.1201 18.75V22.5M8.37012 22.5H15.8701M12.1201 15.75C11.3245 15.75 10.5614 15.4339 9.9988 14.8713C9.43619 14.3087 9.12012 13.5456 9.12012 12.75V4.5C9.12012 3.70435 9.43619 2.94129 9.9988 2.37868C10.5614 1.81607 11.3245 1.5 12.1201 1.5C12.9158 1.5 13.6788 1.81607 14.2414 2.37868C14.804 2.94129 15.1201 3.70435 15.1201 4.5V12.75C15.1201 13.5456 14.804 14.3087 14.2414 14.8713C13.6788 15.4339 12.9158 15.75 12.1201 15.75Z" stroke="black" stroke-width="1.5" stroke-linecap="round" stroke-linejoin="round"/>
</svg>
