<svg width="25" height="24" viewBox="0 0 25 24" fill="none" xmlns="http://www.w3.org/2000/svg">
<path d="M12.1201 7.5H13.6201M12.1201 10.5H13.6201M6.12012 13.5H13.6201M6.12012 16.5H13.6201M16.6201 7.5H19.9951C20.6161 7.5 21.1201 8.004 21.1201 8.625V18C21.1201 18.5967 20.8831 19.169 20.4611 19.591C20.0392 20.0129 19.4669 20.25 18.8701 20.25M16.6201 7.5V18C16.6201 18.5967 16.8572 19.169 17.2791 19.591C17.7011 20.0129 18.2734 20.25 18.8701 20.25M16.6201 7.5V4.875C16.6201 4.254 16.1161 3.75 15.4951 3.75H4.24512C3.62412 3.75 3.12012 4.254 3.12012 4.875V18C3.12012 18.5967 3.35717 19.169 3.77913 19.591C4.20108 20.0129 4.77338 20.25 5.37012 20.25H18.8701M6.12012 7.5H9.12012V10.5H6.12012V7.5Z" stroke="black" stroke-width="1.5" stroke-linecap="round" stroke-linejoin="round"/>
</svg>
