<svg width="25" height="24" viewBox="0 0 25 24" fill="none" xmlns="http://www.w3.org/2000/svg">
<path d="M14.9776 17.082C16.8408 16.8614 18.6715 16.4217 20.4316 15.772C18.941 14.1208 18.1173 11.9745 18.1206 9.75V9C18.1206 7.4087 17.4885 5.88258 16.3632 4.75736C15.238 3.63214 13.7119 3 12.1206 3C10.5293 3 9.00317 3.63214 7.87795 4.75736C6.75274 5.88258 6.12059 7.4087 6.12059 9V9.75C6.12361 11.9746 5.29958 14.121 3.80859 15.772C5.54159 16.412 7.36859 16.857 9.26359 17.082M14.9776 17.082C13.0796 17.3071 11.1616 17.3071 9.26359 17.082M14.9776 17.082C15.1217 17.5319 15.1575 18.0094 15.0822 18.4757C15.0068 18.942 14.8224 19.384 14.544 19.7656C14.2655 20.1472 13.9009 20.4576 13.4798 20.6716C13.0587 20.8856 12.593 20.9972 12.1206 20.9972C11.6482 20.9972 11.1825 20.8856 10.7614 20.6716C10.3403 20.4576 9.97567 20.1472 9.69722 19.7656C9.41876 19.384 9.23436 18.942 9.15901 18.4757C9.08366 18.0094 9.11949 17.5319 9.26359 17.082" stroke="currentColor" stroke-width="1.5" stroke-linecap="round" stroke-linejoin="round"/>
</svg>
