<svg width="25" height="24" viewBox="0 0 25 24" fill="none" xmlns="http://www.w3.org/2000/svg">
<path d="M18.4951 12.7393L10.8021 20.4323C9.95823 21.2762 8.81363 21.7503 7.62014 21.7503C6.42666 21.7503 5.28206 21.2762 4.43814 20.4323C3.59423 19.5883 3.12012 18.4437 3.12012 17.2503C3.12012 16.0568 3.59423 14.9122 4.43814 14.0683L15.3781 3.12825C15.6568 2.84972 15.9876 2.6288 16.3517 2.47811C16.7157 2.32742 17.1059 2.24991 17.4999 2.25C17.8939 2.25009 18.284 2.32779 18.6479 2.47865C19.0119 2.62951 19.3426 2.85059 19.6211 3.12925C19.8997 3.40792 20.1206 3.73872 20.2713 4.10276C20.422 4.4668 20.4995 4.85696 20.4994 5.25096C20.4993 5.64496 20.4216 6.03508 20.2707 6.39906C20.1199 6.76303 19.8988 7.09372 19.6201 7.37225L8.67214 18.3203C8.38813 18.5925 8.00851 18.7413 7.61509 18.7363C7.22168 18.7313 6.84597 18.572 6.56894 18.2926C6.29192 18.0132 6.13575 17.6362 6.13411 17.2427C6.13246 16.8493 6.28547 16.4709 6.56014 16.1893L14.3701 8.37925M8.68114 18.3103L8.67114 18.3203" stroke="black" stroke-width="1.5" stroke-linecap="round" stroke-linejoin="round"/>
</svg>
