<svg width="25" height="24" viewBox="0 0 25 24" fill="none" xmlns="http://www.w3.org/2000/svg">
<path d="M16.9821 4.48725L18.6691 2.79925C19.0208 2.44757 19.4978 2.25 19.9951 2.25C20.4925 2.25 20.9694 2.44757 21.3211 2.79925C21.6728 3.15092 21.8704 3.6279 21.8704 4.12525C21.8704 4.62259 21.6728 5.09957 21.3211 5.45125L10.7021 16.0702C10.1734 16.5986 9.52148 16.987 8.80512 17.2002L6.12012 18.0002L6.92012 15.3152C7.13339 14.5989 7.52175 13.9469 8.05012 13.4182L16.9821 4.48725ZM16.9821 4.48725L19.6201 7.12525M18.1201 14.0002V18.7502C18.1201 19.347 17.8831 19.9193 17.4611 20.3412C17.0392 20.7632 16.4669 21.0002 15.8701 21.0002H5.37012C4.77338 21.0002 4.20108 20.7632 3.77913 20.3412C3.35717 19.9193 3.12012 19.347 3.12012 18.7502V8.25025C3.12012 7.65351 3.35717 7.08121 3.77913 6.65926C4.20108 6.2373 4.77338 6.00025 5.37012 6.00025H10.1201" stroke="black" stroke-width="1.5" stroke-linecap="round" stroke-linejoin="round"/>
</svg>
