<svg width="24" height="24" viewBox="0 0 24 24" fill="none" xmlns="http://www.w3.org/2000/svg">
<g clip-path="url(#clip0_215_2522)">
<path d="M22.406 0.367716L12.3933 9.36645L22.406 0.367716ZM22.406 0.367716L22.4063 0.367516C22.755 0.0555649 23.2911 0.0812131 23.6074 0.431161C23.9211 0.780562 23.8921 1.31882 23.5437 1.63246L13.5309 10.6322L22.406 0.367716ZM12.3295 10.5686C12.4977 10.7555 12.7295 10.85 12.962 10.85C13.1643 10.85 13.3683 10.7778 13.5307 10.6324L12.3295 10.5686ZM12.3295 10.5686C12.0159 10.2192 12.0449 9.68011 12.3933 9.36652L12.3295 10.5686ZM13.9222 4.93763L13.9219 4.93759C13.2921 4.87915 12.6455 4.84995 12 4.84995C9.03433 4.84995 6.51116 5.44623 4.72406 6.31672C3.83078 6.75184 3.11621 7.25802 2.62296 7.79743C2.13025 8.33625 1.85 8.91809 1.85 9.49995C1.85 10.0818 2.13025 10.6637 2.62296 11.2025C3.11621 11.7419 3.83078 12.2481 4.72406 12.6832C6.51116 13.5537 9.03433 14.15 12 14.15C14.9657 14.15 17.4888 13.5537 19.2759 12.6832C20.1692 12.2481 20.8838 11.7419 21.377 11.2025C21.8698 10.6637 22.15 10.0818 22.15 9.49995C22.15 8.84505 21.8204 8.20778 21.2058 7.60763C20.87 7.27949 20.8632 6.74249 21.1923 6.40579L21.085 6.30095L21.1923 6.40579C21.5195 6.07091 22.0575 6.06327 22.3941 6.39221C23.3525 7.32911 23.85 8.40431 23.85 9.49995V17.5C23.85 19.2428 22.5888 20.8275 20.4519 21.9849C18.3196 23.14 15.3453 23.85 12 23.85C8.65468 23.85 5.68044 23.14 3.54807 21.9849C1.41116 20.8275 0.15 19.2428 0.15 17.5V9.49995C0.15 7.75715 1.41116 6.17245 3.54807 5.01497C5.68044 3.85995 8.65468 3.14995 12 3.14995C12.6963 3.14995 13.3957 3.18273 14.0783 3.24433C14.5455 3.28775 14.889 3.70145 14.8466 4.1691C14.8031 4.63871 14.4034 4.98353 13.9222 4.93763ZM10.993 22.1258L11.15 22.1331V21.976V15.978V15.8342L11.0064 15.8281C9.59157 15.7675 8.25529 15.5787 7.03532 15.2832L6.85 15.2383V15.429V21.365V21.4793L6.96027 21.5096C8.1476 21.8357 9.50562 22.0563 10.993 22.1258ZM12.9936 15.8281L12.85 15.8342V15.978V21.976V22.1331L13.007 22.1258C14.4944 22.0563 15.8524 21.8357 17.0397 21.5096L17.15 21.4793V21.365V15.429V15.2383L16.9647 15.2832C15.7447 15.5787 14.4084 15.7675 12.9936 15.8281ZM2.0948 13.0227L1.85 12.8231V13.139V17.5C1.85 18.104 2.1527 18.7084 2.6822 19.265C3.2125 19.8224 3.97996 20.3428 4.93731 20.7832L5.15 20.8811V20.6469V14.812V14.7088L5.05372 14.6719C3.88427 14.2233 2.88197 13.6646 2.0948 13.0227ZM18.85 20.6469V20.8811L19.0627 20.7832C20.02 20.3428 20.7875 19.8226 21.3178 19.2654C21.8473 18.7089 22.15 18.1045 22.15 17.5V13.139V12.8231L21.9052 13.0227C21.118 13.6646 20.1157 14.2233 18.9463 14.6719L18.85 14.7088V14.812V20.6469Z" fill="black" stroke="white" stroke-width="0.3"/>
</g>
<defs>
<clipPath id="clip0_215_2522">
<rect width="24" height="24" fill="white"/>
</clipPath>
</defs>
</svg>
