<svg width="25" height="24" viewBox="0 0 25 24" fill="none" xmlns="http://www.w3.org/2000/svg">
<path d="M2.37012 15.75L7.52912 10.591C7.73805 10.3821 7.98609 10.2163 8.25907 10.1033C8.53206 9.99018 8.82464 9.93198 9.12012 9.93198C9.41559 9.93198 9.70818 9.99018 9.98116 10.1033C10.2541 10.2163 10.5022 10.3821 10.7111 10.591L15.8701 15.75M14.3701 14.25L15.7791 12.841C15.988 12.6321 16.2361 12.4663 16.5091 12.3533C16.7821 12.2402 17.0746 12.182 17.3701 12.182C17.6656 12.182 17.9582 12.2402 18.2312 12.3533C18.5041 12.4663 18.7522 12.6321 18.9611 12.841L21.8701 15.75M3.87012 19.5H20.3701C20.7679 19.5 21.1495 19.342 21.4308 19.0607C21.7121 18.7794 21.8701 18.3978 21.8701 18V6C21.8701 5.60218 21.7121 5.22064 21.4308 4.93934C21.1495 4.65804 20.7679 4.5 20.3701 4.5H3.87012C3.47229 4.5 3.09076 4.65804 2.80946 4.93934C2.52815 5.22064 2.37012 5.60218 2.37012 6V18C2.37012 18.3978 2.52815 18.7794 2.80946 19.0607C3.09076 19.342 3.47229 19.5 3.87012 19.5ZM14.3701 8.25H14.3781V8.258H14.3701V8.25ZM14.7451 8.25C14.7451 8.34946 14.7056 8.44484 14.6353 8.51517C14.565 8.58549 14.4696 8.625 14.3701 8.625C14.2707 8.625 14.1753 8.58549 14.105 8.51517C14.0346 8.44484 13.9951 8.34946 13.9951 8.25C13.9951 8.15054 14.0346 8.05516 14.105 7.98484C14.1753 7.91451 14.2707 7.875 14.3701 7.875C14.4696 7.875 14.565 7.91451 14.6353 7.98484C14.7056 8.05516 14.7451 8.15054 14.7451 8.25Z" stroke="black" stroke-width="1.5" stroke-linecap="round" stroke-linejoin="round"/>
</svg>
