<svg width="25" height="24" viewBox="0 0 25 24" fill="none" xmlns="http://www.w3.org/2000/svg">
<path d="M21.1201 12C21.1201 13.1819 20.8873 14.3522 20.435 15.4442C19.9827 16.5361 19.3198 17.5282 18.4841 18.364C17.6484 19.1997 16.6562 19.8626 15.5643 20.3149C14.4723 20.7672 13.302 21 12.1201 21C10.9382 21 9.7679 20.7672 8.67597 20.3149C7.58404 19.8626 6.59188 19.1997 5.75616 18.364C4.92043 17.5282 4.25749 16.5361 3.8052 15.4442C3.35291 14.3522 3.12012 13.1819 3.12012 12C3.12012 9.61305 4.06833 7.32387 5.75616 5.63604C7.44398 3.94821 9.73317 3 12.1201 3C14.5071 3 16.7963 3.94821 18.4841 5.63604C20.1719 7.32387 21.1201 9.61305 21.1201 12Z" stroke="black" stroke-width="1.5" stroke-linecap="round" stroke-linejoin="round"/>
<path d="M16.0301 11.6716C16.0887 11.7041 16.1375 11.7516 16.1714 11.8093C16.2054 11.867 16.2233 11.9327 16.2233 11.9996C16.2233 12.0666 16.2054 12.1323 16.1714 12.19C16.1375 12.2477 16.0887 12.2952 16.0301 12.3276L10.4271 15.4406C10.37 15.4723 10.3056 15.4886 10.2403 15.4877C10.175 15.4869 10.1111 15.469 10.0548 15.4359C9.99856 15.4028 9.95192 15.3555 9.91952 15.2988C9.88713 15.2421 9.8701 15.1779 9.87012 15.1126V8.88663C9.87012 8.60063 10.1771 8.42063 10.4271 8.55963L16.0301 11.6716Z" stroke="black" stroke-width="1.5" stroke-linecap="round" stroke-linejoin="round"/>
</svg>
