<svg width="25" height="24" viewBox="0 0 25 24" fill="none" xmlns="http://www.w3.org/2000/svg">
<path d="M5.37012 5.65308C5.37012 4.79708 6.28712 4.25508 7.03712 4.66708L18.5771 11.0151C18.7535 11.1122 18.9006 11.2549 19.003 11.4282C19.1055 11.6016 19.1595 11.7992 19.1595 12.0006C19.1595 12.2019 19.1055 12.3996 19.003 12.5729C18.9006 12.7463 18.7535 12.889 18.5771 12.9861L7.03712 19.3331C6.86588 19.4272 6.67307 19.4751 6.47768 19.4721C6.28229 19.4691 6.09105 19.4152 5.92282 19.3158C5.75458 19.2164 5.61513 19.0749 5.51822 18.9052C5.4213 18.7355 5.37026 18.5435 5.37012 18.3481V5.65308Z" stroke="black" stroke-width="1.5" stroke-linecap="round" stroke-linejoin="round"/>
</svg>
