<svg width="25" height="24" viewBox="0 0 25 24" fill="none" xmlns="http://www.w3.org/2000/svg">
<path d="M3.87012 7.5L20.3701 3.375M12.1201 6.75C9.45726 6.74887 6.79887 6.96795 4.17212 7.405C3.11912 7.58 2.37012 8.507 2.37012 9.574V18.75C2.37012 19.3467 2.60717 19.919 3.02913 20.341C3.45108 20.7629 4.02338 21 4.62012 21H19.6201C20.2169 21 20.7892 20.7629 21.2111 20.341C21.6331 19.919 21.8701 19.3467 21.8701 18.75V9.574C21.8701 8.507 21.1201 7.58 20.0681 7.405C17.4414 6.96808 14.783 6.749 12.1201 6.75ZM10.4371 13.193L10.4321 13.198L10.4261 13.193L10.4321 13.188L10.4371 13.193ZM10.4321 15.32L10.4271 15.314L10.4321 15.309L10.4371 15.314L10.4321 15.32ZM8.31612 15.314L8.31112 15.32L8.30512 15.314L8.31012 15.309L8.31612 15.314ZM8.31112 13.198L8.30512 13.193L8.31112 13.188L8.31612 13.193L8.31112 13.198ZM9.37512 10.5V10.508H9.36712V10.5H9.37512ZM12.6241 12.38L12.6171 12.384L12.6141 12.377L12.6201 12.374L12.6241 12.38ZM11.2441 17.506L11.2411 17.5L11.2471 17.496L11.2511 17.503L11.2451 17.506H11.2441ZM11.2511 11.005L11.2481 11.011L11.2411 11.008L11.2451 11.001L11.2511 11.005ZM12.6211 16.134L12.6141 16.13L12.6181 16.124L12.6241 16.127L12.6201 16.134H12.6211ZM13.1251 14.257H13.1171V14.25H13.1251V14.257ZM9.37512 18V18.008H9.36712V18H9.37512ZM6.12912 16.13L6.12212 16.134L6.12012 16.127L6.12612 16.124L6.13012 16.13H6.12912ZM7.49512 11.011L7.49112 11.005L7.49712 11.001L7.50112 11.008L7.49512 11.011ZM7.50012 17.5L7.49712 17.506L7.49012 17.503L7.49412 17.496L7.50012 17.5ZM6.12412 12.384L6.12012 12.38L6.12312 12.373L6.13012 12.377L6.12612 12.384H6.12412ZM5.62412 14.257H5.61612V14.25H5.62412V14.257ZM17.3701 12.75C17.1712 12.75 16.9804 12.671 16.8398 12.5303C16.6991 12.3897 16.6201 12.1989 16.6201 12C16.6201 11.8011 16.6991 11.6103 16.8398 11.4697C16.9804 11.329 17.1712 11.25 17.3701 11.25C17.569 11.25 17.7598 11.329 17.9004 11.4697C18.0411 11.6103 18.1201 11.8011 18.1201 12C18.1201 12.1989 18.0411 12.3897 17.9004 12.5303C17.7598 12.671 17.569 12.75 17.3701 12.75ZM17.3701 17.25C17.1712 17.25 16.9804 17.171 16.8398 17.0303C16.6991 16.8897 16.6201 16.6989 16.6201 16.5C16.6201 16.3011 16.6991 16.1103 16.8398 15.9697C16.9804 15.829 17.1712 15.75 17.3701 15.75C17.569 15.75 17.7598 15.829 17.9004 15.9697C18.0411 16.1103 18.1201 16.3011 18.1201 16.5C18.1201 16.6989 18.0411 16.8897 17.9004 17.0303C17.7598 17.171 17.569 17.25 17.3701 17.25Z" stroke="black" stroke-width="1.5" stroke-linecap="round" stroke-linejoin="round"/>
</svg>
