<svg width="25" height="24" viewBox="0 0 25 24" fill="none" xmlns="http://www.w3.org/2000/svg">
<path fill-rule="evenodd" clip-rule="evenodd" d="M6.61373 3.31655C10.2723 2.89188 13.9678 2.89188 17.6264 3.31654L6.61373 3.31655ZM17.6266 3.31657C18.3302 3.39855 18.8701 4.01074 18.8701 4.75657V20.6418L16.1487 19.5532C15.9699 19.4817 15.7704 19.4817 15.5916 19.5532L12.1201 20.9418L8.64866 19.5532C8.46985 19.4817 8.27038 19.4817 8.09157 19.5532L5.37012 20.6418V4.75657C5.37012 4.01042 5.90931 3.39852 6.61359 3.31657M6.44064 1.82657C10.2143 1.38854 14.0259 1.38854 17.7996 1.82657L17.7998 1.8266C19.2961 2.00071 20.3701 3.28648 20.3701 4.75657V21.7496C20.3701 21.9984 20.2467 22.2311 20.0406 22.3706C19.8345 22.5101 19.5726 22.5384 19.3416 22.4459L15.8701 21.0573L12.3987 22.4459C12.2199 22.5175 12.0204 22.5175 11.8416 22.4459L8.37012 21.0573L4.89866 22.4459C4.66759 22.5384 4.40572 22.5101 4.19965 22.3706C3.99357 22.2311 3.87012 21.9984 3.87012 21.7496V4.75657C3.87012 3.28677 4.94286 2.0007 6.44051 1.82659L6.44064 1.82657ZM14.5898 7.71924C14.8827 7.42635 15.3576 7.42635 15.6504 7.71924C15.9433 8.01213 15.9433 8.48701 15.6504 8.7799L9.65045 14.7799C9.35755 15.0728 8.88268 15.0728 8.58979 14.7799C8.29689 14.487 8.29689 14.0121 8.58979 13.7192L14.5898 7.71924ZM9.07462 8.20407C9.2856 7.99309 9.57175 7.87457 9.87012 7.87457C10.1685 7.87457 10.4546 7.99309 10.6656 8.20407C10.8766 8.41505 10.9951 8.7012 10.9951 8.99957C10.9951 9.29794 10.8766 9.58409 10.6656 9.79507C10.4546 10.006 10.1685 10.1246 9.87012 10.1246C9.57175 10.1246 9.2856 10.006 9.07462 9.79507C8.86364 9.58409 8.74512 9.29794 8.74512 8.99957C8.74512 8.7012 8.86364 8.41505 9.07462 8.20407ZM13.5746 12.7041C13.7856 12.4931 14.0718 12.3746 14.3701 12.3746C14.6685 12.3746 14.9546 12.4931 15.1656 12.7041C15.3766 12.9151 15.4951 13.2012 15.4951 13.4996C15.4951 13.7979 15.3766 14.0841 15.1656 14.2951C14.9546 14.506 14.6685 14.6246 14.3701 14.6246C14.0718 14.6246 13.7856 14.506 13.5746 14.2951C13.3636 14.0841 13.2451 13.7979 13.2451 13.4996C13.2451 13.2012 13.3636 12.9151 13.5746 12.7041Z" fill="black"/>
</svg>
