<svg width="25" height="24" viewBox="0 0 25 24" fill="none" xmlns="http://www.w3.org/2000/svg">
<path d="M15.7101 14.37C15.9183 15.2511 15.9245 16.1678 15.7281 17.0516C15.5317 17.9354 15.1378 18.7633 14.576 19.4732C14.0142 20.1832 13.299 20.7568 12.4841 21.1511C11.6691 21.5454 10.7755 21.7501 9.87012 21.75V16.95M15.7101 14.37C17.62 12.9788 19.1737 11.1555 20.2443 9.04908C21.3149 6.94267 21.872 4.61287 21.8701 2.25C19.5074 2.2483 17.1778 2.80549 15.0716 3.87607C12.9654 4.94665 11.1422 6.50026 9.75112 8.41M15.7101 14.37C13.972 15.6413 11.9804 16.5214 9.87012 16.95M9.87012 16.95C9.76666 16.9711 9.66299 16.9911 9.55912 17.01C8.6519 16.2906 7.8305 15.4692 7.11112 14.562C7.13001 14.4578 7.14901 14.3538 7.17012 14.25M9.75112 8.41C8.86998 8.2016 7.9531 8.19532 7.06918 8.39164C6.18527 8.58797 5.35726 8.98179 4.64719 9.54362C3.93712 10.1054 3.36342 10.8207 2.96907 11.6357C2.57472 12.4508 2.36995 13.3446 2.37012 14.25H7.17012M9.75112 8.41C8.48 10.1478 7.59887 12.14 7.17012 14.25M4.93112 16.64C4.2733 17.1292 3.76184 17.789 3.45214 18.548C3.14244 19.307 3.04629 20.1363 3.17412 20.946C3.98394 21.0737 4.81328 20.9774 5.5723 20.6675C6.33131 20.3577 6.99107 19.846 7.48012 19.188M16.6201 9C16.6201 9.39783 16.4621 9.77936 16.1808 10.0607C15.8995 10.342 15.5179 10.5 15.1201 10.5C14.7223 10.5 14.3408 10.342 14.0595 10.0607C13.7782 9.77936 13.6201 9.39783 13.6201 9C13.6201 8.60218 13.7782 8.22065 14.0595 7.93934C14.3408 7.65804 14.7223 7.5 15.1201 7.5C15.5179 7.5 15.8995 7.65804 16.1808 7.93934C16.4621 8.22065 16.6201 8.60218 16.6201 9Z" stroke="black" stroke-width="1.5" stroke-linecap="round" stroke-linejoin="round"/>
</svg>
