<svg width="25" height="24" viewBox="0 0 25 24" fill="none" xmlns="http://www.w3.org/2000/svg">
<path d="M7.3368 10.9073C7.09467 10.4716 6.71471 10.1286 6.25657 9.93227C5.79844 9.73589 5.28806 9.69719 4.80556 9.82226C4.32305 9.94733 3.89574 10.2291 3.59068 10.6233C3.28563 11.0175 3.12012 11.5018 3.12012 12.0003C3.12012 12.4987 3.28563 12.9831 3.59068 13.3773C3.89574 13.7715 4.32305 14.0532 4.80556 14.1783C5.28806 14.3034 5.79844 14.2647 6.25657 14.0683C6.71471 13.8719 7.09467 13.529 7.3368 13.0933M7.3368 10.9073C7.5168 11.2313 7.6198 11.6033 7.6198 12.0003C7.6198 12.3973 7.5168 12.7703 7.3368 13.0933M7.3368 10.9073L16.9028 5.59328M7.3368 13.0933L16.9028 18.4073M16.9028 5.59328C17.0431 5.85742 17.2346 6.09095 17.4661 6.28021C17.6977 6.46947 17.9646 6.61068 18.2514 6.69556C18.5382 6.78044 18.839 6.80731 19.1363 6.77458C19.4335 6.74185 19.7213 6.65018 19.9827 6.50494C20.2442 6.35971 20.474 6.1638 20.6588 5.9287C20.8437 5.69359 20.9798 5.42399 21.0592 5.13567C21.1387 4.84734 21.1598 4.54607 21.1214 4.24948C21.0831 3.95288 20.986 3.66691 20.8358 3.40828C20.5399 2.89862 20.0558 2.52542 19.4876 2.3689C18.9194 2.21237 18.3125 2.28503 17.7973 2.57124C17.2822 2.85745 16.8998 3.33437 16.7326 3.89948C16.5653 4.46459 16.6264 5.07277 16.9028 5.59328ZM16.9028 18.4073C16.7593 18.6657 16.668 18.9498 16.6343 19.2434C16.6006 19.537 16.625 19.8345 16.7062 20.1186C16.7874 20.4028 16.9238 20.6683 17.1076 20.8997C17.2914 21.1312 17.5189 21.3242 17.7773 21.4678C18.0357 21.6113 18.3198 21.7026 18.6134 21.7363C18.9071 21.77 19.2045 21.7456 19.4887 21.6644C19.7729 21.5832 20.0383 21.4468 20.2698 21.263C20.5012 21.0792 20.6943 20.8517 20.8378 20.5933C21.1277 20.0715 21.1984 19.4559 21.0344 18.8819C20.8704 18.308 20.4851 17.8227 19.9633 17.5328C19.4415 17.2429 18.8259 17.1722 18.2519 17.3362C17.678 17.5002 17.1927 17.8855 16.9028 18.4073Z" stroke="black" stroke-width="1.5" stroke-linecap="round" stroke-linejoin="round"/>
</svg>
