<svg width="25" height="24" viewBox="0 0 25 24" fill="none" xmlns="http://www.w3.org/2000/svg">
<path d="M15.8703 10.5V6C15.8703 5.00544 15.4753 4.05161 14.772 3.34835C14.0687 2.64509 13.1149 2.25 12.1203 2.25C11.1258 2.25 10.172 2.64509 9.4687 3.34835C8.76543 4.05161 8.37035 5.00544 8.37035 6V10.5M19.7263 8.507L20.9893 20.507C21.0593 21.172 20.5393 21.75 19.8703 21.75H4.37035C4.21255 21.7502 4.05649 21.7171 3.91229 21.6531C3.7681 21.589 3.63899 21.4953 3.53337 21.3781C3.42774 21.2608 3.34796 21.1227 3.2992 20.9726C3.25044 20.8226 3.2338 20.6639 3.25035 20.507L4.51435 8.507C4.5435 8.23056 4.67397 7.9747 4.8806 7.78876C5.08722 7.60281 5.35537 7.49995 5.63335 7.5H18.6073C19.1833 7.5 19.6663 7.935 19.7263 8.507ZM8.74535 10.5C8.74535 10.5995 8.70584 10.6948 8.63551 10.7652C8.56519 10.8355 8.4698 10.875 8.37035 10.875C8.27089 10.875 8.17551 10.8355 8.10518 10.7652C8.03486 10.6948 7.99535 10.5995 7.99535 10.5C7.99535 10.4005 8.03486 10.3052 8.10518 10.2348C8.17551 10.1645 8.27089 10.125 8.37035 10.125C8.4698 10.125 8.56519 10.1645 8.63551 10.2348C8.70584 10.3052 8.74535 10.4005 8.74535 10.5ZM16.2453 10.5C16.2453 10.5995 16.2058 10.6948 16.1355 10.7652C16.0652 10.8355 15.9698 10.875 15.8703 10.875C15.7709 10.875 15.6755 10.8355 15.6052 10.7652C15.5349 10.6948 15.4953 10.5995 15.4953 10.5C15.4953 10.4005 15.5349 10.3052 15.6052 10.2348C15.6755 10.1645 15.7709 10.125 15.8703 10.125C15.9698 10.125 16.0652 10.1645 16.1355 10.2348C16.2058 10.3052 16.2453 10.4005 16.2453 10.5Z" stroke="currentColor" stroke-width="1.5" stroke-linecap="round" stroke-linejoin="round"/>
</svg>
