<svg width="24" height="24" viewBox="0 0 24 24" fill="none" xmlns="http://www.w3.org/2000/svg">
<path d="M6.96232 16.7707C7.30968 16.7716 7.65377 16.7036 7.97472 16.5708C8.29567 16.4379 8.5871 16.2428 8.83218 15.9966L11.5323 13.2965C11.6278 13.205 11.7549 13.154 11.8871 13.154C12.0193 13.154 12.1464 13.205 12.2419 13.2965L14.9518 16.0064C15.1969 16.2526 15.4883 16.4477 15.8092 16.5806C16.1302 16.7134 16.4743 16.7814 16.8217 16.7804H17.3542L13.934 20.2006C13.4211 20.7132 12.7256 21.0012 12.0004 21.0012C11.2752 21.0012 10.5797 20.7132 10.0668 20.2006L6.63755 16.7707H6.96232ZM16.8217 7.22034C16.4743 7.21943 16.1302 7.28736 15.8093 7.42022C15.4883 7.55308 15.1969 7.74823 14.9518 7.99438L12.2419 10.705C12.1477 10.7989 12.0201 10.8517 11.8871 10.8517C11.7541 10.8517 11.6265 10.7989 11.5323 10.705L8.83218 8.00488C8.58716 7.75859 8.29576 7.56331 7.97481 7.43032C7.65386 7.29733 7.30973 7.22928 6.96232 7.23009H6.6368L10.0668 3.80088C10.5796 3.28808 11.2751 3 12.0004 3C12.7256 3 13.4212 3.28808 13.934 3.80088L17.3534 7.22034H16.8217ZM3.80088 10.0668L5.8425 8.02439H6.96157C7.45188 8.02567 7.92191 8.22025 8.26965 8.56592L10.9698 11.2661C11.213 11.5086 11.5425 11.6448 11.886 11.6448C12.2295 11.6448 12.5589 11.5086 12.8022 11.2661L15.5128 8.55617C15.8604 8.21016 16.3305 8.01528 16.8209 8.01389H18.1462L20.1991 10.0668C20.7119 10.5796 21 11.2751 21 12.0004C21 12.7256 20.7119 13.4212 20.1991 13.934L18.147 15.9861H16.8209C16.3306 15.9849 15.8605 15.7903 15.5128 15.4446L12.8029 12.7347C12.556 12.499 12.2277 12.3675 11.8864 12.3675C11.545 12.3675 11.2168 12.499 10.9698 12.7347L8.26965 15.4348C7.92191 15.7805 7.45188 15.9751 6.96157 15.9764H5.84325L3.80088 13.934C3.28808 13.4212 3 12.7256 3 12.0004C3 11.2751 3.28808 10.5796 3.80088 10.0668Z" fill="#00BDAE"/>
</svg>
