<svg width="24" height="24" viewBox="0 0 24 24" fill="none" xmlns="http://www.w3.org/2000/svg">
<g clip-path="url(#clip0_215_2523)">
<path d="M21.1605 6.37222L21.1603 6.37227C20.9856 6.45525 20.7732 6.56926 20.5235 6.70464L20.5233 6.70477L20.5152 6.7091C19.6634 7.16895 18.439 7.82987 17.0245 8.06376L16.85 8.09261V7.91577V6.99977C16.85 6.52962 16.4702 6.14977 16 6.14977C15.5298 6.14977 15.15 6.52962 15.15 6.99977V7.99977V8.14977H15H12H11.85V7.99977V6.99977C11.85 6.52962 11.4702 6.14977 11 6.14977C10.5298 6.14977 10.15 6.52962 10.15 6.99977V7.99977V8.14977H10H7H6.85V7.99977V6.99977C6.85 6.52962 6.47016 6.14977 6 6.14977C5.52984 6.14977 5.15 6.52962 5.15 6.99977V8.28077V8.39765L5.03667 8.42622C3.87987 8.71789 2.72869 9.19447 1.82815 9.62036L21.1605 6.37222ZM21.1605 6.37222C22.0371 5.95499 22.664 6.21724 22.9549 6.40062C23.5275 6.76203 23.8749 7.48486 23.875 8.41432C23.875 8.41447 23.875 8.41462 23.875 8.41477L23.85 16.5873V16.5876C23.849 17.5155 23.5026 18.2384 22.9301 18.5988L22.9298 18.599M21.1605 6.37222L22.9298 18.599M22.9298 18.599C22.7512 18.712 22.4497 18.8498 22.049 18.8498C21.789 18.8498 21.4823 18.793 21.1355 18.6268C21.1353 18.6267 21.1351 18.6266 21.1349 18.6265L20.7028 18.4145L20.7024 18.4143C20.1966 18.1629 19.4118 17.7728 18.562 17.4457C17.7153 17.1197 16.7881 16.8498 16 16.8498H7C5.0032 16.8498 3.04151 16.0642 1.73932 15.3992C0.759995 14.8982 0.15 13.8971 0.15 12.7838V12.2798C0.15 11.1466 0.80972 10.1035 1.82813 9.62037L22.9298 18.599ZM2.55495 11.1581C2.12546 11.3604 1.85 11.8009 1.85 12.2798V12.7838C1.85 13.2521 2.10283 13.6758 2.51273 13.8853L2.51275 13.8853C3.42881 14.3534 5.24157 15.1498 7 15.1498H16.001C16.9691 15.1498 18.0222 15.429 18.9939 15.7892C19.964 16.1488 20.8419 16.5849 21.4603 16.8921L21.4606 16.8923L21.8636 17.0913L21.8635 17.0915L21.8709 17.0946L21.8814 17.0992L21.8919 17.1036L22.0435 17.1686L22.0938 17.0116C22.1243 16.9165 22.15 16.7748 22.15 16.5848V16.5823V16.5818L22.176 8.41225V8.41177C22.176 8.22247 22.149 8.08256 22.1204 7.98966L22.0713 7.83017L21.9179 7.8959L21.8969 7.9049L21.8969 7.90482L21.8921 7.90707C21.7596 7.96949 21.606 8.05237 21.4368 8.14361C21.4022 8.16231 21.3669 8.18135 21.331 8.20064L21.3308 8.20076C20.1742 8.82459 18.2718 9.84977 16 9.84977H7C5.90329 9.84977 4.32395 10.3203 2.55495 11.1581ZM2.55495 11.1581C2.55501 11.1581 2.55506 11.1581 2.55511 11.1581L2.619 11.2938M2.55495 11.1581C2.5549 11.1582 2.55485 11.1582 2.55479 11.1582L2.619 11.2938M2.619 11.2938C2.243 11.4708 2 11.8578 2 12.2798V12.7838C2 13.1978 2.223 13.5688 2.581 13.7518L2.619 11.2938ZM12.85 12.4998C12.85 13.2449 12.2452 13.8498 11.5 13.8498C10.7548 13.8498 10.15 13.2449 10.15 12.4998C10.15 11.7546 10.7548 11.1498 11.5 11.1498C12.2452 11.1498 12.85 11.7546 12.85 12.4998ZM7.85 12.4998C7.85 13.2449 7.24516 13.8498 6.5 13.8498C5.75484 13.8498 5.15 13.2449 5.15 12.4998C5.15 11.7546 5.75484 11.1498 6.5 11.1498C7.24516 11.1498 7.85 11.7546 7.85 12.4998ZM17.85 12.4998C17.85 13.2449 17.2452 13.8498 16.5 13.8498C15.7548 13.8498 15.15 13.2449 15.15 12.4998C15.15 11.7546 15.7548 11.1498 16.5 11.1498C17.2452 11.1498 17.85 11.7546 17.85 12.4998Z" fill="black" stroke="white" stroke-width="0.3"/>
</g>
<defs>
<clipPath id="clip0_215_2523">
<rect width="24" height="24" fill="white"/>
</clipPath>
</defs>
</svg>
