<svg width="25" height="24" viewBox="0 0 25 24" fill="none" xmlns="http://www.w3.org/2000/svg">
<path fill-rule="evenodd" clip-rule="evenodd" d="M18.1201 1.5C18.4642 1.5 18.7642 1.73414 18.8477 2.06793L19.1067 3.10293C19.2221 3.56457 19.4608 3.98639 19.7973 4.32286C20.1337 4.65933 20.5553 4.89801 21.017 5.01338L22.0522 5.27243C22.386 5.35596 22.6201 5.65591 22.6201 6C22.6201 6.34409 22.386 6.64404 22.0522 6.72757L21.0172 6.98657C20.5555 7.10194 20.1337 7.34067 19.7973 7.67714C19.4608 8.01361 19.2221 8.4352 19.1067 8.89684L18.8477 9.93207C18.7642 10.2659 18.4642 10.5 18.1201 10.5C17.776 10.5 17.4761 10.2659 17.3926 9.93207L17.1336 8.89707C17.0182 8.43552 16.7796 8.01371 16.4433 7.67725C16.107 7.34084 15.6856 7.10212 15.2242 6.98661C15.2242 6.98659 15.2243 6.98662 15.2242 6.98661L14.1882 6.72761C13.8543 6.64414 13.6201 6.34415 13.6201 6C13.6201 5.65585 13.8543 5.35586 14.1882 5.27239L15.224 5.01344C15.224 5.01345 15.2241 5.01342 15.224 5.01344C15.6855 4.89793 16.107 4.65916 16.4433 4.32275C16.7796 3.98629 17.0182 3.56476 17.1335 3.10322L17.3926 2.06793C17.4761 1.73414 17.776 1.5 18.1201 1.5ZM16.7159 6C17.0014 6.17207 17.2663 6.37889 17.5042 6.61681C17.7418 6.8545 17.9483 7.11921 18.1202 7.4045C18.2921 7.11907 18.4988 6.85425 18.7366 6.61648C18.9744 6.37869 19.2392 6.17198 19.5247 6C19.2392 5.82802 18.9744 5.62131 18.7366 5.38352C18.4988 5.14575 18.2921 4.88093 18.1202 4.5955C17.9483 4.88079 17.7418 5.1455 17.5042 5.38319C17.2663 5.62111 17.0014 5.82793 16.7159 6ZM9.1202 4.5C9.45505 4.50004 9.7493 4.72203 9.84127 5.04399L10.6542 7.88988C10.6542 7.88984 10.6542 7.88992 10.6542 7.88988C10.8294 8.50245 11.1577 9.06042 11.6082 9.51093C12.0587 9.96146 12.6166 10.2898 13.2292 10.4649L16.0763 11.2789C16.3982 11.3709 16.6202 11.6652 16.6201 12.0001C16.6201 12.3349 16.3981 12.6292 16.0761 12.7212L13.2302 13.5341C13.2302 13.5341 13.2303 13.5341 13.2302 13.5341C12.6177 13.7092 12.0597 14.0376 11.6092 14.4881C11.1587 14.9386 10.8303 15.4965 10.6552 16.1091C10.6523 16.1194 10.6492 16.1296 10.6458 16.1397L9.84127 18.956C9.74929 19.278 9.45499 19.5 9.12012 19.5C8.78524 19.5 8.49095 19.278 8.39896 18.956L7.586 16.1101C7.41089 15.4975 7.08258 14.9396 6.63205 14.4891C6.18151 14.0385 5.62361 13.7102 5.011 13.5351L2.16394 12.7211C1.842 12.6291 1.62008 12.3348 1.62012 11.9999C1.62016 11.6651 1.84215 11.3708 2.16411 11.2788L5.01 10.4659C5.00996 10.4659 5.01003 10.4659 5.01 10.4659C5.62257 10.2908 6.18054 9.96243 6.63105 9.51193C7.08158 9.06139 7.40989 8.5035 7.585 7.89088L8.39901 5.04383C8.49106 4.72188 8.78536 4.49996 9.1202 4.5ZM9.1198 7.97938L9.02724 8.30312C8.78209 9.16078 8.32245 9.94184 7.69171 10.5726C7.06096 11.2033 6.2799 11.663 5.42224 11.9081L5.09949 12.0003L5.42324 12.0929C5.42322 12.0929 5.42326 12.0929 5.42324 12.0929C6.28088 12.338 7.06197 12.7977 7.69271 13.4284C8.32345 14.0592 8.78309 14.8402 9.02824 15.6979L9.12012 16.0195L9.21196 15.698C9.21514 15.6869 9.21856 15.6759 9.22223 15.665C9.46958 14.8198 9.92561 14.0503 10.5485 13.4274C11.1793 12.7967 11.9603 12.337 12.818 12.0919L13.1407 11.9997L12.817 11.9071C12.817 11.9071 12.817 11.9071 12.817 11.9071C11.9594 11.662 11.1783 11.2023 10.5475 10.5716C9.91678 9.94084 9.45715 9.15978 9.212 8.30212L9.1198 7.97938ZM16.6201 15C16.943 15 17.2297 15.2067 17.3317 15.513L17.7256 16.6958C17.7993 16.9167 17.9233 17.1175 18.088 17.2821C18.2526 17.4468 18.4534 17.5709 18.6743 17.6445L19.8571 18.0384C20.1635 18.1405 20.3701 18.4271 20.3701 18.75C20.3701 19.0729 20.1635 19.3595 19.8571 19.4616L18.6743 19.8555C18.6742 19.8555 18.6744 19.8555 18.6743 19.8555C18.4535 19.9292 18.2526 20.0533 18.088 20.2179C17.9233 20.3825 17.7993 20.5833 17.7256 20.8042L17.3317 21.987C17.2297 22.2933 16.943 22.5 16.6201 22.5C16.2972 22.5 16.0106 22.2933 15.9085 21.987L15.5146 20.8042C15.441 20.5833 15.3169 20.3825 15.1522 20.2179C14.9876 20.0533 14.787 19.9292 14.5661 19.8556C14.5661 19.8556 14.5662 19.8556 14.5661 19.8556L13.3831 19.4616C13.0768 19.3595 12.8701 19.0729 12.8701 18.75C12.8701 18.4271 13.0768 18.1405 13.3831 18.0384L14.5659 17.6445C14.7869 17.5709 14.9876 17.4468 15.1522 17.2821C15.3169 17.1175 15.441 16.9167 15.5146 16.6958L15.9085 15.513C16.0106 15.2067 16.2972 15 16.6201 15ZM16.6201 17.8359C16.5035 18.0185 16.3671 18.1886 16.2129 18.3428C16.0587 18.497 15.8887 18.6334 15.7061 18.75C15.8887 18.8666 16.0587 19.003 16.2129 19.1572C16.3671 19.3114 16.5035 19.4815 16.6201 19.6641C16.7367 19.4815 16.8731 19.3114 17.0273 19.1572C17.1815 19.003 17.3516 18.8666 17.5342 18.75C17.3516 18.6334 17.1815 18.497 17.0273 18.3428C16.8731 18.1886 16.7367 18.0185 16.6201 17.8359Z" fill="black"/>
</svg>
