<svg width="25" height="24" viewBox="0 0 25 24" fill="none" xmlns="http://www.w3.org/2000/svg">
<path d="M11.5998 3.49921C11.6421 3.39605 11.7141 3.30779 11.8067 3.24567C11.8993 3.18356 12.0083 3.15039 12.1198 3.15039C12.2313 3.15039 12.3403 3.18356 12.4329 3.24567C12.5255 3.30779 12.5975 3.39605 12.6398 3.49921L14.7648 8.61021C14.8046 8.70585 14.8699 8.78866 14.9538 8.84953C15.0376 8.9104 15.1365 8.94697 15.2398 8.95521L20.7578 9.39721C21.2568 9.43721 21.4588 10.0602 21.0788 10.3852L16.8748 13.9872C16.7962 14.0544 16.7377 14.1419 16.7056 14.2402C16.6735 14.3384 16.6691 14.4436 16.6928 14.5442L17.9778 19.9292C18.0036 20.0373 17.9968 20.1505 17.9583 20.2547C17.9198 20.3589 17.8513 20.4494 17.7614 20.5146C17.6715 20.5799 17.5643 20.6171 17.4533 20.6214C17.3423 20.6258 17.2325 20.5972 17.1378 20.5392L12.4128 17.6542C12.3245 17.6004 12.2231 17.572 12.1198 17.572C12.0164 17.572 11.915 17.6004 11.8268 17.6542L7.10178 20.5402C7.00704 20.5982 6.89723 20.6268 6.78624 20.6224C6.67524 20.6181 6.56803 20.5809 6.47815 20.5156C6.38827 20.4504 6.31974 20.3599 6.28123 20.2557C6.24272 20.1515 6.23595 20.0383 6.26178 19.9302L7.54678 14.5442C7.57061 14.4436 7.56623 14.3384 7.53412 14.2401C7.50201 14.1418 7.44341 14.0543 7.36478 13.9872L3.16078 10.3852C3.07659 10.3128 3.01569 10.2172 2.98573 10.1102C2.95577 10.0033 2.95809 9.88996 2.9924 9.78436C3.0267 9.67876 3.09147 9.58567 3.17855 9.51678C3.26562 9.4479 3.37112 9.4063 3.48178 9.39721L8.99978 8.95521C9.10303 8.94697 9.202 8.9104 9.28581 8.84953C9.36961 8.78866 9.435 8.70585 9.47478 8.61021L11.5998 3.49921Z" stroke="black" stroke-width="1.5" stroke-linecap="round" stroke-linejoin="round"/>
</svg>
