<svg width="25" height="24" viewBox="0 0 25 24" fill="none" xmlns="http://www.w3.org/2000/svg">
<path d="M9.68812 3H5.37012C4.77338 3 4.20108 3.23705 3.77913 3.65901C3.35717 4.08097 3.12012 4.65326 3.12012 5.25V9.568C3.12012 10.165 3.35712 10.738 3.77912 11.159L13.3601 20.74C14.0591 21.439 15.1401 21.612 15.9671 21.07C18.0487 19.7066 19.8268 17.9286 21.1901 15.847C21.7321 15.02 21.5591 13.939 20.8601 13.24L11.2801 3.66C11.0711 3.45077 10.823 3.28478 10.5498 3.17154C10.2766 3.05829 9.98383 3 9.68812 3Z" stroke="black" stroke-width="1.5" stroke-linecap="round" stroke-linejoin="round"/>
<path d="M6.12012 6H6.12814V6.008H6.12012V6Z" stroke="black" stroke-width="1.5" stroke-linecap="round" stroke-linejoin="round"/>
</svg>
