<svg width="25" height="24" viewBox="0 0 25 24" fill="none" xmlns="http://www.w3.org/2000/svg">
<path d="M6.75312 10.5C7.55912 10.5 8.28612 10.054 8.78412 9.42C9.56038 8.42962 10.5348 7.61218 11.6451 7.02C12.3681 6.636 12.9951 6.064 13.2981 5.305C13.5109 4.77325 13.6202 4.20575 13.6201 3.633V3C13.6201 2.80109 13.6991 2.61032 13.8398 2.46967C13.9804 2.32902 14.1712 2.25 14.3701 2.25C14.9669 2.25 15.5392 2.48705 15.9611 2.90901C16.3831 3.33097 16.6201 3.90326 16.6201 4.5C16.6201 5.652 16.3601 6.743 15.8971 7.718C15.6311 8.276 16.0041 9 16.6221 9H19.7481C20.7741 9 21.6931 9.694 21.8021 10.715C21.8471 11.137 21.8701 11.565 21.8701 12C21.8743 14.7363 20.9392 17.3912 19.2211 19.521C18.8331 20.003 18.2341 20.25 17.6161 20.25H13.6001C13.1166 20.2498 12.6361 20.1721 12.1771 20.02L9.06312 18.98C8.60422 18.8274 8.12373 18.7497 7.64012 18.75H6.02412M6.02412 18.75C6.10712 18.955 6.19712 19.155 6.29412 19.352C6.49112 19.752 6.21612 20.25 5.77112 20.25H4.86312C3.97412 20.25 3.15012 19.732 2.89112 18.882C2.54476 17.7452 2.36918 16.5633 2.37012 15.375C2.37012 13.822 2.66512 12.339 3.20112 10.977C3.50712 10.203 4.28712 9.75 5.12012 9.75H6.17312C6.64512 9.75 6.91812 10.306 6.67312 10.71C5.81901 12.116 5.36855 13.7299 5.37112 15.375C5.36949 16.5316 5.59156 17.6777 6.02512 18.75H6.02412ZM14.3701 9H16.6201" stroke="black" stroke-width="1.5" stroke-linecap="round" stroke-linejoin="round"/>
</svg>
