<svg width="25" height="24" viewBox="0 0 25 24" fill="none" xmlns="http://www.w3.org/2000/svg">
<path d="M19.1201 7.5V10.5M19.1201 10.5V13.5M19.1201 10.5H22.1201M19.1201 10.5H16.1201M13.8701 6.375C13.8701 6.81821 13.7828 7.25708 13.6132 7.66656C13.4436 8.07603 13.195 8.44809 12.8816 8.76149C12.5682 9.07488 12.1961 9.32348 11.7867 9.49309C11.3772 9.6627 10.9383 9.75 10.4951 9.75C10.0519 9.75 9.61303 9.6627 9.20356 9.49309C8.79409 9.32348 8.42203 9.07488 8.10863 8.76149C7.79523 8.44809 7.54663 8.07603 7.37702 7.66656C7.20741 7.25708 7.12012 6.81821 7.12012 6.375C7.12012 5.47989 7.4757 4.62145 8.10863 3.98851C8.74157 3.35558 9.60001 3 10.4951 3C11.3902 3 12.2487 3.35558 12.8816 3.98851C13.5145 4.62145 13.8701 5.47989 13.8701 6.375ZM4.12012 19.235V19.125C4.12012 17.4342 4.79177 15.8127 5.98731 14.6172C7.18286 13.4216 8.80436 12.75 10.4951 12.75C12.1859 12.75 13.8074 13.4216 15.0029 14.6172C16.1985 15.8127 16.8701 17.4342 16.8701 19.125V19.234C14.9456 20.3931 12.7407 21.0038 10.4941 21C8.16312 21 5.98212 20.355 4.12012 19.234V19.235Z" stroke="currentColor" stroke-width="1.5" stroke-linecap="round" stroke-linejoin="round"/>
</svg>
