<svg width="25" height="24" viewBox="0 0 25 24" fill="none" xmlns="http://www.w3.org/2000/svg">
<path d="M15.8701 6C15.8701 6.99456 15.475 7.94839 14.7717 8.65165C14.0685 9.35491 13.1147 9.75 12.1201 9.75C11.1255 9.75 10.1717 9.35491 9.46844 8.65165C8.76518 7.94839 8.37009 6.99456 8.37009 6C8.37009 5.00544 8.76518 4.05161 9.46844 3.34835C10.1717 2.64509 11.1255 2.25 12.1201 2.25C13.1147 2.25 14.0685 2.64509 14.7717 3.34835C15.475 4.05161 15.8701 5.00544 15.8701 6ZM4.62109 20.118C4.65323 18.1504 5.45743 16.2742 6.86027 14.894C8.26311 13.5139 10.1522 12.7405 12.1201 12.7405C14.088 12.7405 15.9771 13.5139 17.3799 14.894C18.7828 16.2742 19.587 18.1504 19.6191 20.118C17.2665 21.1968 14.7082 21.7535 12.1201 21.75C9.44409 21.75 6.90409 21.166 4.62109 20.118Z" stroke="black" stroke-width="1.5" stroke-linecap="round" stroke-linejoin="round"/>
</svg>
