<svg width="25" height="24" viewBox="0 0 25 24" fill="none" xmlns="http://www.w3.org/2000/svg">
<path d="M17.1789 15.521C17.6467 15.2015 18.1953 15.0211 18.7614 15.0004C19.3275 14.9798 19.8879 15.1199 20.3777 15.4044C20.8675 15.689 21.2667 16.1064 21.5292 16.6084C21.7917 17.1104 21.9067 17.6764 21.8609 18.241C20.661 18.6603 19.3866 18.8235 18.1199 18.72C18.116 17.5866 17.7896 16.4768 17.1789 15.522C16.6368 14.6718 15.889 13.972 15.0047 13.4875C14.1204 13.003 13.1282 12.7493 12.1199 12.75C11.1117 12.7495 10.1197 13.0032 9.23559 13.4877C8.35149 13.9723 7.60386 14.6719 7.06186 15.522M18.1189 18.719L18.1199 18.75C18.1199 18.975 18.1079 19.197 18.0829 19.416C16.2682 20.4571 14.2119 21.0033 12.1199 21C9.94986 21 7.91286 20.424 6.15686 19.416C6.13115 19.1846 6.11879 18.9519 6.11986 18.719M6.11986 18.719C4.85349 18.8263 3.57977 18.6637 2.38086 18.242C2.33521 17.6776 2.45025 17.1117 2.71269 16.6099C2.97512 16.1081 3.37423 15.6908 3.86386 15.4063C4.35349 15.1218 4.91365 14.9817 5.47958 15.0021C6.0455 15.0226 6.59407 15.2028 7.06186 15.522M6.11986 18.719C6.12345 17.5857 6.45148 16.4769 7.06186 15.522M15.1199 6.75C15.1199 7.54565 14.8038 8.30871 14.2412 8.87132C13.6786 9.43393 12.9155 9.75 12.1199 9.75C11.3242 9.75 10.5611 9.43393 9.99854 8.87132C9.43593 8.30871 9.11986 7.54565 9.11986 6.75C9.11986 5.95435 9.43593 5.19129 9.99854 4.62868C10.5611 4.06607 11.3242 3.75 12.1199 3.75C12.9155 3.75 13.6786 4.06607 14.2412 4.62868C14.8038 5.19129 15.1199 5.95435 15.1199 6.75ZM21.1199 9.75C21.1199 10.0455 21.0617 10.3381 20.9486 10.611C20.8355 10.884 20.6698 11.1321 20.4608 11.341C20.2519 11.5499 20.0039 11.7157 19.7309 11.8287C19.4579 11.9418 19.1653 12 18.8699 12C18.5744 12 18.2818 11.9418 18.0088 11.8287C17.7358 11.7157 17.4878 11.5499 17.2789 11.341C17.0699 11.1321 16.9042 10.884 16.7911 10.611C16.6781 10.3381 16.6199 10.0455 16.6199 9.75C16.6199 9.15326 16.8569 8.58097 17.2789 8.15901C17.7008 7.73705 18.2731 7.5 18.8699 7.5C19.4666 7.5 20.0389 7.73705 20.4608 8.15901C20.8828 8.58097 21.1199 9.15326 21.1199 9.75ZM7.61986 9.75C7.61986 10.0455 7.56166 10.3381 7.44859 10.611C7.33551 10.884 7.16978 11.1321 6.96085 11.341C6.75192 11.5499 6.50388 11.7157 6.2309 11.8287C5.95791 11.9418 5.66533 12 5.36986 12C5.07438 12 4.7818 11.9418 4.50882 11.8287C4.23584 11.7157 3.9878 11.5499 3.77887 11.341C3.56994 11.1321 3.4042 10.884 3.29113 10.611C3.17806 10.3381 3.11986 10.0455 3.11986 9.75C3.11986 9.15326 3.35691 8.58097 3.77887 8.15901C4.20082 7.73705 4.77312 7.5 5.36986 7.5C5.9666 7.5 6.53889 7.73705 6.96085 8.15901C7.38281 8.58097 7.61986 9.15326 7.61986 9.75Z" stroke="currentColor" stroke-width="1.5" stroke-linecap="round" stroke-linejoin="round"/>
</svg>
