<svg width="25" height="24" viewBox="0 0 25 24" fill="none" xmlns="http://www.w3.org/2000/svg">
<path d="M15.8701 10.5L20.5901 5.78C20.695 5.67524 20.8286 5.60392 20.974 5.57503C21.1194 5.54615 21.2701 5.561 21.407 5.61771C21.544 5.67442 21.6611 5.77045 21.7435 5.89367C21.8259 6.01688 21.87 6.16176 21.8701 6.31V17.69C21.87 17.8382 21.8259 17.9831 21.7435 18.1063C21.6611 18.2295 21.544 18.3256 21.407 18.3823C21.2701 18.439 21.1194 18.4538 20.974 18.425C20.8286 18.3961 20.695 18.3248 20.5901 18.22L15.8701 13.5M4.62012 18.75H13.6201C14.2169 18.75 14.7892 18.5129 15.2111 18.091C15.6331 17.669 15.8701 17.0967 15.8701 16.5V7.5C15.8701 6.90326 15.6331 6.33097 15.2111 5.90901C14.7892 5.48705 14.2169 5.25 13.6201 5.25H4.62012C4.02338 5.25 3.45108 5.48705 3.02913 5.90901C2.60717 6.33097 2.37012 6.90326 2.37012 7.5V16.5C2.37012 17.0967 2.60717 17.669 3.02913 18.091C3.45108 18.5129 4.02338 18.75 4.62012 18.75Z" stroke="currentColor" stroke-width="1.5" stroke-linecap="round"/>
</svg>
