<svg width="25" height="24" viewBox="0 0 25 24" fill="none" xmlns="http://www.w3.org/2000/svg">
<path d="M3.87012 6C3.87012 5.40326 4.10717 4.83097 4.52913 4.40901C4.95108 3.98705 5.52338 3.75 6.12012 3.75H8.37012C8.96685 3.75 9.53915 3.98705 9.96111 4.40901C10.3831 4.83097 10.6201 5.40326 10.6201 6V8.25C10.6201 8.84674 10.3831 9.41903 9.96111 9.84099C9.53915 10.2629 8.96685 10.5 8.37012 10.5H6.12012C5.52338 10.5 4.95108 10.2629 4.52913 9.84099C4.10717 9.41903 3.87012 8.84674 3.87012 8.25V6ZM3.87012 15.75C3.87012 15.1533 4.10717 14.581 4.52913 14.159C4.95108 13.7371 5.52338 13.5 6.12012 13.5H8.37012C8.96685 13.5 9.53915 13.7371 9.96111 14.159C10.3831 14.581 10.6201 15.1533 10.6201 15.75V18C10.6201 18.5967 10.3831 19.169 9.96111 19.591C9.53915 20.0129 8.96685 20.25 8.37012 20.25H6.12012C5.52338 20.25 4.95108 20.0129 4.52913 19.591C4.10717 19.169 3.87012 18.5967 3.87012 18V15.75ZM13.6201 6C13.6201 5.40326 13.8572 4.83097 14.2791 4.40901C14.7011 3.98705 15.2734 3.75 15.8701 3.75H18.1201C18.7169 3.75 19.2892 3.98705 19.7111 4.40901C20.1331 4.83097 20.3701 5.40326 20.3701 6V8.25C20.3701 8.84674 20.1331 9.41903 19.7111 9.84099C19.2892 10.2629 18.7169 10.5 18.1201 10.5H15.8701C15.2734 10.5 14.7011 10.2629 14.2791 9.84099C13.8572 9.41903 13.6201 8.84674 13.6201 8.25V6ZM13.6201 15.75C13.6201 15.1533 13.8572 14.581 14.2791 14.159C14.7011 13.7371 15.2734 13.5 15.8701 13.5H18.1201C18.7169 13.5 19.2892 13.7371 19.7111 14.159C20.1331 14.581 20.3701 15.1533 20.3701 15.75V18C20.3701 18.5967 20.1331 19.169 19.7111 19.591C19.2892 20.0129 18.7169 20.25 18.1201 20.25H15.8701C15.2734 20.25 14.7011 20.0129 14.2791 19.591C13.8572 19.169 13.6201 18.5967 13.6201 18V15.75Z" stroke="currentColor" stroke-width="1.5" stroke-linecap="round" stroke-linejoin="round"/>
</svg>
