<svg width="25" height="24" viewBox="0 0 25 24" fill="none" xmlns="http://www.w3.org/2000/svg">
<path d="M2.15625 12.322C2.08724 12.1146 2.08724 11.8904 2.15625 11.683C3.54325 7.51 7.48025 4.5 12.1203 4.5C16.7583 4.5 20.6933 7.507 22.0833 11.678C22.1533 11.885 22.1533 12.109 22.0833 12.317C20.6973 16.49 16.7603 19.5 12.1203 19.5C7.48225 19.5 3.54625 16.493 2.15625 12.322Z" stroke="black" stroke-width="1.5" stroke-linecap="round" stroke-linejoin="round"/>
<path d="M15.1201 12C15.1201 12.7956 14.804 13.5587 14.2414 14.1213C13.6788 14.6839 12.9158 15 12.1201 15C11.3245 15 10.5614 14.6839 9.9988 14.1213C9.43619 13.5587 9.12012 12.7956 9.12012 12C9.12012 11.2044 9.43619 10.4413 9.9988 9.87868C10.5614 9.31607 11.3245 9 12.1201 9C12.9158 9 13.6788 9.31607 14.2414 9.87868C14.804 10.4413 15.1201 11.2044 15.1201 12Z" stroke="black" stroke-width="1.5" stroke-linecap="round" stroke-linejoin="round"/>
</svg>
