<svg width="25" height="24" viewBox="0 0 25 24" fill="none" xmlns="http://www.w3.org/2000/svg">
<path d="M4.09971 8.223C3.16417 9.32718 2.46753 10.6132 2.05371 12C3.34571 16.338 7.36371 19.5 12.1197 19.5C13.1127 19.5 14.0727 19.362 14.9827 19.105M6.34771 6.228C8.06033 5.09781 10.0678 4.49682 12.1197 4.5C16.8757 4.5 20.8927 7.662 22.1847 11.998C21.4766 14.3673 19.9567 16.4115 17.8917 17.772M6.34771 6.228L3.11971 3M6.34771 6.228L9.99771 9.878M17.8917 17.772L21.1197 21M17.8917 17.772L14.2417 14.122C14.5203 13.8434 14.7413 13.5127 14.8921 13.1486C15.0429 12.7846 15.1205 12.3945 15.1205 12.0005C15.1205 11.6065 15.0429 11.2164 14.8921 10.8524C14.7413 10.4883 14.5203 10.1576 14.2417 9.879C13.9631 9.6004 13.6324 9.3794 13.2684 9.22863C12.9044 9.07785 12.5142 9.00025 12.1202 9.00025C11.7262 9.00025 11.3361 9.07785 10.9721 9.22863C10.6081 9.3794 10.2773 9.6004 9.99871 9.879M14.2407 14.121L9.99971 9.88" stroke="black" stroke-width="1.5" stroke-linecap="round" stroke-linejoin="round"/>
</svg>
