<svg width="25" height="24" viewBox="0 0 25 24" fill="currentColor" xmlns="http://www.w3.org/2000/svg">
<path fill-rule="evenodd" clip-rule="evenodd" d="M5.59043 5.47015C5.73106 5.3297 5.92168 5.25081 6.12043 5.25081C6.31918 5.25081 6.50981 5.3297 6.65043 5.47015L12.1204 10.9402L17.5904 5.47015C17.6591 5.39647 17.7419 5.33736 17.8339 5.29637C17.9259 5.25538 18.0252 5.23334 18.1259 5.23156C18.2266 5.22979 18.3266 5.24831 18.42 5.28603C18.5134 5.32375 18.5983 5.3799 18.6695 5.45112C18.7407 5.52233 18.7968 5.60717 18.8346 5.70056C18.8723 5.79394 18.8908 5.89397 18.889 5.99468C18.8872 6.09538 18.8652 6.19469 18.8242 6.28669C18.7832 6.37869 18.7241 6.46149 18.6504 6.53015L13.1804 12.0002L18.6504 17.4702C18.7241 17.5388 18.7832 17.6216 18.8242 17.7136C18.8652 17.8056 18.8872 17.9049 18.889 18.0056C18.8908 18.1063 18.8723 18.2064 18.8346 18.2998C18.7968 18.3931 18.7407 18.478 18.6695 18.5492C18.5983 18.6204 18.5134 18.6766 18.42 18.7143C18.3266 18.752 18.2266 18.7705 18.1259 18.7687C18.0252 18.767 17.9259 18.7449 17.8339 18.7039C17.7419 18.6629 17.6591 18.6038 17.5904 18.5302L12.1204 13.0602L6.65043 18.5302C6.50826 18.6626 6.32021 18.7348 6.12591 18.7313C5.93161 18.7279 5.74622 18.6492 5.60881 18.5118C5.4714 18.3744 5.39269 18.189 5.38926 17.9947C5.38583 17.8004 5.45795 17.6123 5.59043 17.4702L11.0604 12.0002L5.59043 6.53015C5.44998 6.38953 5.37109 6.1989 5.37109 6.00015C5.37109 5.8014 5.44998 5.61078 5.59043 5.47015Z" fill="currentColor"/>
</svg>
